<svg height="512pt" viewBox="0 0 512 512" width="512pt" xmlns="http://www.w3.org/2000/svg"><path d="m512 256c0 141.386719-114.613281 256-256 256s-256-114.613281-256-256 114.613281-256 256-256 256 114.613281 256 256zm0 0" fill="#4a7aff"/><path d="m512 256c0-6.101562-.226562-12.152344-.648438-18.148438l-91.851562-91.851562-12.972656 11.015625-57.066406-57.066406-1.375 11.691406-35.90625-35.90625 3.660156 84.589844-84.585938-84.589844-138.753906 159.265625 122.894531 122.894531-103.988281 50.054688 100.207031 100.207031c14.417969 2.519531 29.246094 3.84375 44.386719 3.84375 141.386719 0 256-114.613281 256-256zm0 0" fill="#2864f0"/><path d="m258.15625 156.613281-76.519531-56.058593 18.183593-24.820313c9.402344-12.835937 29.398438-9.582031 34.246094 5.574219zm0 0" fill="#fdba12"/><path d="m250 146h-94.859375v-30.765625c0-15.910156 18.050781-25.101563 30.917969-15.742187zm0 0" fill="#ffd400"/><path d="m253.84375 156.613281 76.519531-56.058593-18.183593-24.820313c-9.402344-12.835937-29.398438-9.582031-34.246094 5.574219zm0 0" fill="#ffa300"/><path d="m262 146h94.859375v-30.765625c0-15.910156-18.050781-25.101563-30.917969-15.742187zm0 0" fill="#fdba12"/><path d="m111.40625 176.863281h289.1875v231.085938h-289.1875zm0 0" fill="#ffd400"/><path d="m255.644531 176.863281h144.949219v231.085938h-144.949219zm0 0" fill="#fdba12"/><path d="m325 407.949219 75.59375-213.03125v-18.054688h-58.453125l-82 231.085938zm0 0" fill="#f24500"/><path d="m400.59375 308.039062-35.453125 99.910157h35.453125zm0 0" fill="#f24500"/><path d="m220 407.949219 82-231.085938h-64.859375l-82 231.085938zm0 0" fill="#fe6a16"/><path d="m255.644531 176.863281v130.640625l46.355469-130.640625zm0 0" fill="#f24500"/><path d="m111.40625 407.949219h3.59375l82-231.085938h-64.859375l-20.734375 58.429688zm0 0" fill="#fe6a16"/><g fill="#f24500"><path d="m92.5 146h327v89h-327zm0 0"/><path d="m255.644531 146h163.855469v89h-163.855469zm0 0"/></g></svg>