<svg height="512pt" viewBox="0 0 512 512" width="512pt" xmlns="http://www.w3.org/2000/svg"><path d="m512 256c0 141.386719-114.613281 256-256 256s-256-114.613281-256-256 114.613281-256 256-256 256 114.613281 256 256zm0 0" fill="#fdbf00"/><path d="m511.21875 235.898438-99.632812-99.632813-1.890626 1.886719-53.359374-53.363282-71.335938 8.542969-29 27.332031-57.667969-35.875-47.332031 19.878907 14.332031 60 122.65625 95.195312-167.855469 167.851563 77.628907 77.625c18.710937 4.355468 38.203125 6.660156 58.238281 6.660156 141.386719 0 256-114.613281 256-256 0-6.765625-.265625-13.46875-.78125-20.101562zm0 0" fill="#ff9f00"/><path d="m370.082031 115.484375c0 22.816406-18.667969 41.484375-41.484375 41.484375v-20.742188c11.410156 0 20.742188-9.335937 20.742188-20.742187 0-11.410156-9.332032-20.742187-20.742188-20.742187h-10.371094c-28.625 0-51.855468 23.230468-51.855468 51.855468h-20.742188c0-28.625-23.230468-51.855468-51.855468-51.855468h-10.371094c-11.40625 0-20.742188 9.332031-20.742188 20.742187 0 11.40625 9.335938 20.742187 20.742188 20.742187v20.742188c-22.8125 0-41.480469-18.667969-41.480469-41.484375s18.667969-41.484375 41.480469-41.484375h10.371094c26.550781 0 49.574218 14.519531 62.230468 35.882812 12.648438-21.363281 35.671875-35.882812 62.222656-35.882812h10.371094c22.816406 0 41.484375 18.667969 41.484375 41.484375zm0 0" fill="#ff4b00"/><path d="m266.371094 146.597656h-10.371094v-36.714844c12.652344-21.363281 35.675781-35.882812 62.226562-35.882812h10.371094c22.816406 0 41.484375 18.667969 41.484375 41.484375s-18.667969 41.484375-41.484375 41.484375v-20.742188c11.410156 0 20.742188-9.335937 20.742188-20.742187 0-11.410156-9.332032-20.742187-20.742188-20.742187h-10.371094c-28.625 0-51.855468 23.230468-51.855468 51.855468zm0 0" fill="#dd3400"/><path d="m390.824219 292.484375-20.742188 20.742187 20.742188 20.742188v94.03125h-114.082031l-20.742188-20.742188-20.742188 20.742188h-114.082031v-94.03125l20.742188-20.742188-20.742188-20.742187v-94.03125h114.082031l20.742188 20.742187 20.742188-20.742187h114.082031zm0 0" fill="#ff4b00"/><path d="m390.824219 292.484375-20.742188 20.742187 20.742188 20.742188v94.03125h-114.082031l-20.742188-20.742188v-188.0625l20.742188-20.742187h114.082031zm0 0" fill="#dd3400"/><path d="m276.742188 136.226562-20.742188 46.667969 20.742188 36.300781h134.824218v-82.96875zm0 0" fill="#ff4b00"/><path d="m100.433594 136.226562v82.96875h134.824218l20.742188-40.238281-20.742188-42.730469zm0 0" fill="#ff7816"/><path d="m390.824219 292.484375v41.484375h-114.082031v94.03125h-41.484376v-94.03125h-114.082031v-41.484375h114.082031v-94.03125h41.484376v94.03125zm0 0" fill="#ffbfab"/><path d="m390.824219 292.484375v41.484375h-114.082031v94.03125h-20.742188v-229.546875h20.742188v94.03125zm0 0" fill="#ffa78f"/><path d="m235.257812 136.226562h41.484376v82.96875h-41.484376zm0 0" fill="#ffcebf"/><path d="m256 136.226562h20.742188v82.96875h-20.742188zm0 0" fill="#ffbfab"/></svg>