<?xml version="1.0" encoding="iso-8859-1"?>
<!-- Generator: Adobe Illustrator 19.0.0, SVG Export Plug-In . SVG Version: 6.00 Build 0)  -->
<svg version="1.1" id="Layer_1" xmlns="http://www.w3.org/2000/svg" xmlns:xlink="http://www.w3.org/1999/xlink" x="0px" y="0px"
	 viewBox="0 0 512 512" style="enable-background:new 0 0 512 512;" xml:space="preserve">
<circle style="fill:#273B7A;" cx="256" cy="256" r="256"/>
<path style="fill:#121149;" d="M265.049,511.824c118.003-4.101,215.699-88.055,240.721-199.508L337.813,144.36l-106.81,165.943
	l21.987,21.987l-3.748,1.998L148.256,233.301L128,243.071l101.664,101.664l-85.89,45.813L265.049,511.824z"/>
<path style="fill:#FEE187;" d="M256,189.63l-69.18-46.12c-6.904-4.603-16.153,0.346-16.153,8.645v37.474H256z"/>
<path style="fill:#FFC61B;" d="M256,189.63l69.18-46.12c6.904-4.603,16.153,0.346,16.153,8.645v37.474H256z"/>
<path style="fill:#E09112;" d="M156.301,398.222h199.397c7.775,0,14.079-6.303,14.079-14.079V227.556H142.222v156.588
	C142.222,391.92,148.525,398.222,156.301,398.222z"/>
<path style="fill:#FF5419;" d="M255.426,227.556v170.667h100.273c7.775,0,14.079-6.303,14.079-14.079V227.556H255.426z"/>
<path style="fill:#C92F00;" d="M384,243.071H128v-42.165c0-8.132,6.592-14.724,14.726-14.724h226.551
	c8.132,0,14.726,6.592,14.726,14.724v42.165H384z"/>
<path style="fill:#930000;" d="M384,200.907c0-8.132-6.592-14.726-14.726-14.726h-113.85v56.889h128.574v-42.163H384z"/>
<rect x="240.847" y="186.182" style="fill:#FFEDB5;" width="30.291" height="212.04"/>
<rect x="255.431" y="186.182" style="fill:#FEE187;" width="15.72" height="212.04"/>
<g>
</g>
<g>
</g>
<g>
</g>
<g>
</g>
<g>
</g>
<g>
</g>
<g>
</g>
<g>
</g>
<g>
</g>
<g>
</g>
<g>
</g>
<g>
</g>
<g>
</g>
<g>
</g>
<g>
</g>
</svg>
