<?xml version="1.0" encoding="iso-8859-1"?>
<!-- Generator: Adobe Illustrator 19.0.0, SVG Export Plug-In . SVG Version: 6.00 Build 0)  -->
<svg version="1.1" id="Layer_1" xmlns="http://www.w3.org/2000/svg" xmlns:xlink="http://www.w3.org/1999/xlink" x="0px" y="0px"
	 viewBox="0 0 512 512" style="enable-background:new 0 0 512 512;" xml:space="preserve">
<path style="fill:#FBE287;" d="M507.984,210.593C486.554,90.869,381.89,0,256,0C114.616,0,0,114.616,0,256
	c0,125.889,90.869,230.552,210.592,251.984L507.984,210.593z"/>
<path style="fill:#FDBA4C;" d="M512,256c0-15.496-1.378-30.67-4.016-45.407l-54.766-54.767l-73.057,73.057L225.899,74.62
	L58.783,356.174l151.81,151.81C225.33,510.622,240.504,512,256,512C397.385,512,512,397.385,512,256z"/>
<polygon style="fill:#D33734;" points="311.586,302.217 336.347,412.356 364.174,440.182 364.174,302.217 "/>
<polygon style="fill:#E24642;" points="336.321,302.217 308.522,302.217 308.522,440.182 336.347,412.356 "/>
<polygon style="fill:#DDEFFB;" points="453.218,155.826 453.218,356.174 256,356.174 114.435,261.565 256,155.826 "/>
<rect x="58.783" y="155.826" style="fill:#FFFFFF;" width="197.22" height="200.348"/>
<polygon style="fill:#BCDEF7;" points="430.957,178.087 430.957,333.913 256,333.913 174.271,261.565 256,178.087 "/>
<polygon style="fill:#DDEFFB;" points="256,178.087 256,289.39 244.87,300.522 256,311.652 256,333.913 81.044,333.913 
	81.044,178.087 "/>
<polygon style="fill:#458FDE;" points="408.696,222.609 256,222.609 244.87,211.478 256,200.348 408.696,200.348 "/>
<rect x="103.302" y="200.348" style="fill:#6FAEE8;" width="152.698" height="22.261"/>
<polygon style="fill:#458FDE;" points="408.696,267.13 256,267.13 244.87,256 256,244.87 408.696,244.87 "/>
<g>
	<rect x="103.302" y="244.87" style="fill:#6FAEE8;" width="152.698" height="22.261"/>
	<rect x="103.302" y="289.391" style="fill:#6FAEE8;" width="152.698" height="22.261"/>
</g>
<rect x="336.351" y="289.391" style="fill:#9ACEF3;" width="71.235" height="22.261"/>
<polygon style="fill:#D33734;" points="150.891,116.407 175.653,356.174 203.479,356.174 203.479,116.407 "/>
<polygon style="fill:#E24642;" points="175.625,116.407 147.827,116.407 147.827,356.174 175.653,356.174 "/>
<path style="fill:#D33734;" d="M183.566,74.362c-5.912,5.912-8.781,13.727-8.626,21.527l-11.382,29.995l11.746,29.995l38.683-21.65
	l20.797-37.832c0.099-7.845-2.862-15.753-8.887-21.778C214.138,62.859,195.184,62.744,183.566,74.362z"/>
<g>
	<path style="fill:#E24642;" d="M256.562,105.284c11.76,11.76,11.875,30.713,0.257,42.332c-5.912,5.912-13.727,8.362-21.525,8.211
		h-59.99l59.48-59.429C242.629,96.298,250.541,99.261,256.562,105.284z"/>
	<path style="fill:#E24642;" d="M167.042,74.362c5.912,5.912,8.781,13.727,8.626,21.527l-0.364,59.99l-38.683-21.65l-20.797-37.832
		c-0.099-7.845,2.862-15.753,8.887-21.778C136.47,62.859,155.424,62.744,167.042,74.362z"/>
</g>
<path style="fill:#F15D4A;" d="M94.047,105.284c-11.76,11.76-11.875,30.713-0.257,42.332c5.912,5.912,13.726,8.362,21.525,8.211
	h59.99l-59.48-59.429C107.98,96.298,100.068,99.261,94.047,105.284z"/>
<g>
</g>
<g>
</g>
<g>
</g>
<g>
</g>
<g>
</g>
<g>
</g>
<g>
</g>
<g>
</g>
<g>
</g>
<g>
</g>
<g>
</g>
<g>
</g>
<g>
</g>
<g>
</g>
<g>
</g>
</svg>
