<?xml version="1.0" encoding="iso-8859-1"?>
<!-- Generator: Adobe Illustrator 19.0.0, SVG Export Plug-In . SVG Version: 6.00 Build 0)  -->
<svg version="1.1" id="Layer_1" xmlns="http://www.w3.org/2000/svg" xmlns:xlink="http://www.w3.org/1999/xlink" x="0px" y="0px"
	 viewBox="0 0 512 512" style="enable-background:new 0 0 512 512;" xml:space="preserve">
<circle style="fill:#FEE187;" cx="256" cy="256" r="256"/>
<path style="fill:#FFC61B;" d="M261.673,511.928c126.528-2.753,230.422-97.302,247.763-219.703L387.879,170.667l-7.925,6.072
	l-58.13-58.606l-34.595,19.792l62.91,61.659l-5.856,4.487l-18.177-18.177l-20.118,23.28l-72.451-72.752l-12.509,12.959
	l74.176,72.271l-55.208,63.885l-83.766-83.766l-32.109,25.786l87.337,92.551l-69.236,78.115L261.673,511.928z"/>
<path style="fill:#FF314F;" d="M170.667,170.667c0-15.71,12.734-56.889,28.444-56.889S256,154.957,256,170.667
	s-41.179,28.444-56.889,28.444S170.667,186.377,170.667,170.667z"/>
<path style="fill:#A30F44;" d="M341.333,170.667c0-15.71-12.734-56.889-28.444-56.889S256,154.957,256,170.667
	s41.179,28.444,56.889,28.444S341.333,186.377,341.333,170.667z"/>
<rect x="142.222" y="199.111" style="fill:#FF314F;" width="113.209" height="199.111"/>
<g>
	<rect x="255.431" y="199.111" style="fill:#A30F44;" width="114.347" height="199.111"/>
	<rect x="124.121" y="170.667" style="fill:#A30F44;" width="131.31" height="56.889"/>
</g>
<rect x="255.431" y="170.667" style="fill:#84093C;" width="132.448" height="56.889"/>
<rect x="227.556" y="170.667" style="fill:#FF6262;" width="56.889" height="56.889"/>
<rect x="255.431" y="170.667" style="fill:#FF314F;" width="29.018" height="56.889"/>
<rect x="235.313" y="227.556" style="fill:#FFAD9E;" width="41.374" height="170.667"/>
<rect x="255.431" y="227.556" style="fill:#FF6262;" width="21.261" height="170.667"/>
<g>
</g>
<g>
</g>
<g>
</g>
<g>
</g>
<g>
</g>
<g>
</g>
<g>
</g>
<g>
</g>
<g>
</g>
<g>
</g>
<g>
</g>
<g>
</g>
<g>
</g>
<g>
</g>
<g>
</g>
</svg>
