<?xml version="1.0" encoding="iso-8859-1"?>
<!-- Generator: Adobe Illustrator 19.0.0, SVG Export Plug-In . SVG Version: 6.00 Build 0)  -->
<svg version="1.1" id="Layer_1" xmlns="http://www.w3.org/2000/svg" xmlns:xlink="http://www.w3.org/1999/xlink" x="0px" y="0px"
	 viewBox="0 0 297 297" style="enable-background:new 0 0 297 297;" xml:space="preserve">
<g>
	<g>
		<g>
			<g>
				<g>
					<g>
						<circle style="fill:#EF717A;" cx="148.5" cy="148.5" r="148.5"/>
					</g>
				</g>
			</g>
		</g>
	</g>
	<path style="fill:#D15967;" d="M206.945,65.315L85.511,244.31l52.369,52.308c3.509,0.248,7.049,0.382,10.621,0.382
		c79.745,0,144.8-62.859,148.34-141.731L206.945,65.315z"/>
	<g>
		<path style="fill:#4F2B4F;" d="M143.605,92.271c0,10.807-27.835,9.784-44.057,9.784s-9.79-8.761-9.79-19.568
			s-6.431-19.568,9.79-19.568S143.605,81.464,143.605,92.271z"/>
	</g>
	<g>
		<path style="fill:#391E3A;" d="M153.395,92.271c0,10.807,27.835,9.784,44.057,9.784s9.79-8.761,9.79-19.568
			s6.431-19.568-9.79-19.568S153.395,81.464,153.395,92.271z"/>
	</g>
	<g>
		<path style="fill:#8E44AD;" d="M93.084,247.5h110.833c5.845,0,10.583-4.738,10.583-10.583V115.5h-132v121.417
			C82.5,242.762,87.238,247.5,93.084,247.5z"/>
	</g>
	<g>
		<path style="fill:#6F358E;" d="M148.167,115.5v132h55.75c5.845,0,10.583-4.738,10.583-10.583V115.5H148.167z"/>
	</g>
	<g>
		<circle style="fill:#9B59B6;" cx="148.5" cy="85.5" r="11.5"/>
	</g>
	<g>
		<path style="fill:#8E44AD;" d="M148.5,74c-0.112,0-0.221,0.014-0.333,0.017v22.966C148.279,96.986,148.388,97,148.5,97
			c6.351,0,11.5-5.149,11.5-11.5S154.851,74,148.5,74z"/>
	</g>
	<g>
		<path style="fill:#E3E5E4;" d="M66,123h165v-20.834C231,95.447,225.553,90,218.833,90H78.166C71.447,90,66,95.447,66,102.166V123z
			"/>
	</g>
	<g>
		<path style="fill:#D0D5D9;" d="M231,102.167C231,95.447,225.553,90,218.833,90h-70.667v33H231V102.167z"/>
	</g>
	<g>
		<rect x="137.5" y="90" style="fill:#4F2B4F;" width="22" height="157.5"/>
	</g>
	<g>
		<rect x="148.167" y="90" style="fill:#391E3A;" width="11.333" height="157.5"/>
	</g>
</g>
<g>
</g>
<g>
</g>
<g>
</g>
<g>
</g>
<g>
</g>
<g>
</g>
<g>
</g>
<g>
</g>
<g>
</g>
<g>
</g>
<g>
</g>
<g>
</g>
<g>
</g>
<g>
</g>
<g>
</g>
</svg>
