<svg height="512pt" viewBox="0 0 512 512" width="512pt" xmlns="http://www.w3.org/2000/svg"><path d="m512 256c0 141.386719-114.613281 256-256 256s-256-114.613281-256-256 114.613281-256 256-256 256 114.613281 256 256zm0 0" fill="#60b2fc"/><path d="m512 256c0-1.152344-.027344-2.296875-.042969-3.445312l-142.90625-142.90625-85.355469 23.0625-7.585937-7.585938-46.0625 8.898438-24.585937-24.597657-68.003907 53.957031-25.53125 74.84375 58.027344 57.320313-39.316406 120.121094 94.472656 94.472656c10.128906 1.214844 20.433594 1.859375 30.890625 1.859375 141.386719 0 256-114.613281 256-256zm0 0" fill="#3965cc"/><path d="m233.1875 137.6875-27.726562-28.261719c-8.28125-8.441406-19.351563-13.09375-31.164063-13.09375-24.074219 0-43.660156 19.585938-43.660156 43.660157 0 24.074218 19.585937 43.660156 43.660156 43.660156h81.703125v-45.964844zm0 0" fill="#f64213"/><path d="m337.703125 96.332031c-11.816406 0-22.882813 4.652344-31.164063 13.09375l-27.726562 28.261719h-22.8125v45.964844h81.703125c24.074219 0 43.660156-19.585938 43.660156-43.660156 0-24.074219-19.585937-43.660157-43.660156-43.660157zm0 0" fill="#ed2400"/><path d="m130.636719 219.515625h125.363281v196.152344h-125.363281zm0 0" fill="#ff6"/><path d="m256 219.515625h125.363281v196.152344h-125.363281zm0 0" fill="#ffd15e"/><path d="m111.925781 163.382812h144.074219v74.84375h-144.074219zm0 0" fill="#ffffc2"/><path d="m256 163.382812h144.074219v74.84375h-144.074219zm0 0" fill="#ffea7c"/><path d="m284.066406 144.671875c0-15.503906-12.566406-28.066406-28.066406-28.066406l-12.472656 65.488281 40.539062-18.710938zm0 0" fill="#f64213"/><path d="m227.933594 144.671875v18.710937l28.066406 18.710938v-65.488281c-15.5 0-28.066406 12.5625-28.066406 28.066406zm0 0" fill="#ff6126"/><path d="m256 163.382812-12.472656 73.59375 12.472656 71.726563 28.066406 18.710937v-164.03125zm0 0" fill="#ed2400"/><path d="m227.933594 163.382812v164.03125l28.066406-18.710937v-145.320313zm0 0" fill="#f64213"/></svg>