<?xml version="1.0" encoding="iso-8859-1"?>
<!-- Generator: Adobe Illustrator 19.0.0, SVG Export Plug-In . SVG Version: 6.00 Build 0)  -->
<svg version="1.1" id="Capa_1" xmlns="http://www.w3.org/2000/svg" xmlns:xlink="http://www.w3.org/1999/xlink" x="0px" y="0px"
	 viewBox="0 0 512 512" style="enable-background:new 0 0 512 512;" xml:space="preserve">
<circle style="fill:#26406D;" cx="256" cy="256" r="256"/>
<path style="fill:#11244F;" d="M511.938,260.938L380,129l-5.831,9.439l-32.303-32.303l-6.669,6.036L296.025,73l-161.74,224.411
	l-99.649,87.231l0,0l92.722,92.722C165.158,499.378,209.103,512,256,512C395.734,512,509.304,400.042,511.938,260.938z"/>
<polygon style="fill:#F9C41E;" points="251.294,152.343 216.589,165.965 170.133,106.136 244.649,76.888 "/>
<polygon style="fill:#FE9A35;" points="260.706,152.343 295.411,165.965 341.867,106.136 267.351,76.888 "/>
<polygon style="fill:#FEAA00;" points="274.641,145.667 237.359,145.667 215.975,73 296.025,73 "/>
<polygon style="fill:#FE8E00;" points="296.025,73 255.571,73 255.571,145.667 274.641,145.667 "/>
<rect x="130" y="129" style="fill:#FF1B1B;" width="250" height="217.33"/>
<rect x="255.57" y="129" style="fill:#D60000;" width="124.43" height="217.33"/>
<rect x="225.67" y="129" style="fill:#FFDE1F;" width="58.667" height="217.33"/>
<rect x="255.57" y="129" style="fill:#F9C41E;" width="28.762" height="217.33"/>
<path style="fill:#FED080;" d="M354.467,309.505c-0.088,0.015-0.175,0.028-0.263,0.04l-102.948,13.279
	c-0.131,0.781-0.3,1.56-0.504,2.337c-3.221,12.186-14.705,20.235-27.215,19.082l-59.434-5.341c-3.76-0.336-6.532-3.658-6.194-7.416
	c0.336-3.761,3.674-6.618,7.416-6.195l59.434,5.34c5.871,0.499,11.266-3.239,12.779-8.961c0.824-3.124,0.384-6.382-1.242-9.174
	c-1.626-2.794-4.242-4.786-7.365-5.611l-76.355-20.166c-8.576-2.263-17.574-2.032-26.022,0.676L7.783,318.847
	c5.901,23.378,15.018,45.474,26.853,65.795l25.656-17.258c12.739-7.364,27.952-8.637,41.74-3.48l82.86,30.982
	c15.286,5.155,31.785,4.317,46.468-2.356l132.312-57.509c6.103-3.538,8.57-11.244,5.613-17.681
	C366.692,311.691,360.596,308.477,354.467,309.505z"/>
<path style="fill:#F2BA68;" d="M369.286,317.34c-2.594-5.649-8.69-8.864-14.819-7.835c-0.088,0.015-0.175,0.028-0.263,0.04
	l-98.251,12.673v59.623l107.72-46.82C369.776,331.483,372.243,323.777,369.286,317.34z"/>
<g>
</g>
<g>
</g>
<g>
</g>
<g>
</g>
<g>
</g>
<g>
</g>
<g>
</g>
<g>
</g>
<g>
</g>
<g>
</g>
<g>
</g>
<g>
</g>
<g>
</g>
<g>
</g>
<g>
</g>
</svg>
