<svg viewBox="0 0 512 512" xmlns="http://www.w3.org/2000/svg"><path d="m512 256c0 141.386719-114.613281 256-256 256s-256-114.613281-256-256 114.613281-256 256-256 256 114.613281 256 256zm0 0" fill="#0c2093"/><path d="m512 256c0-12.433594-.90625-24.65625-2.617188-36.617188l-87.265624-87.898437-58.117188-57.484375-52 99.535156-62-62-160.117188 92.667969 144.460938 144.457031-125.859375 59.855469 98.84375 98.84375c15.761719 3.035156 32.027344 4.640625 48.671875 4.640625 141.386719 0 256-114.613281 256-256zm0 0" fill="#0e1c66"/><path d="m256 136.984375h-108v-62.984375l96.714844 34.476562c6.765625 2.414063 11.285156 8.820313 11.285156 16.007813zm0 0" fill="#e85d18"/><path d="m256 136.984375h108v-62.984375l-96.714844 34.476562c-6.765625 2.414063-11.285156 8.820313-11.285156 16.007813zm0 0" fill="#d84a0b"/><path d="m108.484375 151.207031h295.03125v257.308594h-295.03125zm0 0" fill="#ffe600"/><path d="m256 151.207031h147.515625v257.308594h-147.515625zm0 0" fill="#ffc200"/><path d="m89.882812 131.484375h332.234376v72.71875h-332.234376zm0 0" fill="#fdba12"/><path d="m256 131.484375h166.117188v72.71875h-166.117188zm0 0" fill="#ff9d00"/><path d="m207.667969 131.484375h96.667969v277.03125h-96.667969zm0 0" fill="#ff9100"/><path d="m256 131.484375h48.332031v277.03125h-48.332031zm0 0" fill="#ff6e0b"/></svg>