<?xml version="1.0" encoding="iso-8859-1"?>
<!-- Generator: Adobe Illustrator 19.0.0, SVG Export Plug-In . SVG Version: 6.00 Build 0)  -->
<svg version="1.1" id="Layer_1" xmlns="http://www.w3.org/2000/svg" xmlns:xlink="http://www.w3.org/1999/xlink" x="0px" y="0px"
	 viewBox="0 0 512 512" style="enable-background:new 0 0 512 512;" xml:space="preserve">
<circle style="fill:#477F3C;" cx="256" cy="256" r="256"/>
<path style="fill:#2E5E24;" d="M497.076,342.288l-117.701-117.7l-5.394,13.631L252.044,116.283l-74.973,97.973l-42.236-42.236
	l-32.268,14.981l54.02,54.02l-16.458,21.507l91.901,91.901l-116.448,47.714L223.38,509.942C234.063,511.3,244.95,512,256,512
	C367.104,512,461.664,441.215,497.076,342.288z"/>
<path style="fill:#FFAD9E;" d="M193.951,148.847l-49.388-32.927c-4.929-3.286-11.533,0.248-11.533,6.172v26.755H193.951z"/>
<path style="fill:#FF6262;" d="M193.951,148.847l49.388-32.927c4.929-3.286,11.533,0.248,11.533,6.172v26.755H193.951z"/>
<path style="fill:#A30F44;" d="M192.791,181.036v224.142h72.337c5.551,0,10.05-4.499,10.05-10.05V181.036H192.791z"/>
<g>
	<path style="fill:#FF314F;" d="M112.723,181.036v214.092c0,5.551,4.499,10.05,10.05,10.05h70.016V181.036H112.723z"/>
	<path style="fill:#FF314F;" d="M285.332,156.9c0-5.806-4.706-10.512-10.512-10.512h-82.029v40.613h92.541L285.332,156.9
		L285.332,156.9z"/>
</g>
<path style="fill:#FF6262;" d="M113.081,146.387c-5.806,0-10.512,4.706-10.512,10.512v30.101h90.221v-40.613H113.081z"/>
<rect x="183.131" y="146.394" style="fill:#FFAD9E;" width="21.626" height="258.793"/>
<rect x="192.784" y="146.394" style="fill:#FF6262;" width="11.973" height="258.793"/>
<path style="fill:#FFEDB5;" d="M320.326,256.26l-49.388-32.927c-4.929-3.286-11.533,0.248-11.533,6.172v26.755H320.326z"/>
<path style="fill:#FEE187;" d="M320.326,256.26l49.388-32.927c4.929-3.286,11.533,0.248,11.533,6.172v26.755H320.326z"/>
<path style="fill:#FFC61B;" d="M239.099,283.336v111.79c0,5.551,4.499,10.05,10.05,10.05h71.209V283.334h-81.26V283.336z"/>
<g>
	<path style="fill:#EAA22F;" d="M320.36,283.336v121.842h71.144c5.551,0,10.05-4.499,10.05-10.05v-111.79H320.36V283.336z"/>
	<path style="fill:#EAA22F;" d="M239.457,253.799c-5.806,0-10.512,4.706-10.512,10.512v30.101h91.415v-40.615h-80.903V253.799z"/>
</g>
<path style="fill:#FF5419;" d="M411.708,264.311c0-5.806-4.706-10.512-10.512-10.512H320.36v40.615h91.348L411.708,264.311
	L411.708,264.311z"/>
<rect x="309.51" y="253.793" style="fill:#FFEDB5;" width="21.626" height="151.376"/>
<rect x="320.353" y="253.793" style="fill:#FEE187;" width="10.78" height="151.376"/>
<g>
</g>
<g>
</g>
<g>
</g>
<g>
</g>
<g>
</g>
<g>
</g>
<g>
</g>
<g>
</g>
<g>
</g>
<g>
</g>
<g>
</g>
<g>
</g>
<g>
</g>
<g>
</g>
<g>
</g>
</svg>
