<?xml version="1.0" encoding="iso-8859-1"?>
<!-- Generator: Adobe Illustrator 19.0.0, SVG Export Plug-In . SVG Version: 6.00 Build 0)  -->
<svg version="1.1" id="Layer_1" xmlns="http://www.w3.org/2000/svg" xmlns:xlink="http://www.w3.org/1999/xlink" x="0px" y="0px"
	 viewBox="0 0 512 512" style="enable-background:new 0 0 512 512;" xml:space="preserve">
<circle style="fill:#FEE187;" cx="256" cy="256" r="256"/>
<path style="fill:#FFC61B;" d="M511.848,264.411L394.98,147.542L201.533,297.784l44.015,44.015L88.19,384.483l123.721,123.721
	c14.324,2.488,29.053,3.794,44.089,3.794C394.569,512,507.408,401.901,511.848,264.411z"/>
<path style="fill:#8BC180;" d="M381.424,308.979H143.522c-11.052,0-20.013-8.961-20.013-20.013V162.235
	c0-11.052,8.961-20.013,20.013-20.013h237.901c11.052,0,20.013,8.961,20.013,20.013v126.731
	C401.437,300.018,392.476,308.979,381.424,308.979z"/>
<path style="fill:#6CAF5F;" d="M381.424,142.222H260.598v166.757h120.827c11.052,0,20.013-8.961,20.013-20.013V162.235
	C401.437,151.183,392.476,142.222,381.424,142.222z"/>
<rect x="123.501" y="170.718" style="fill:#3F3B3B;" width="277.928" height="41.231"/>
<rect x="260.603" y="170.718" style="fill:#272525;" width="140.843" height="41.231"/>
<path style="fill:#477F3C;" d="M343.247,394.188H105.346c-11.052,0-20.013-8.961-20.013-20.013V247.444
	c0-11.052,8.961-20.013,20.013-20.013h237.901c11.052,0,20.013,8.961,20.013,20.013v126.731
	C363.26,385.229,354.301,394.188,343.247,394.188z"/>
<path style="fill:#2E5E24;" d="M343.247,227.433H225.689V394.19h117.558c11.052,0,20.013-8.961,20.013-20.013V247.446
	C363.26,236.392,354.301,227.433,343.247,227.433z"/>
<path style="fill:#E09112;" d="M151.997,297.619c0,0-3.093,37.104-28.17,52.562c0,0,23.914-8.202,28.17,13.055
	c0,0,23.018-15.803,17.177-62.869"/>
<path style="fill:#FF5419;" d="M201.925,297.619c0,0,3.093,37.104,28.17,52.562c0,0-23.914-8.202-28.17,13.055
	c0,0-23.018-15.803-17.177-62.869"/>
<path style="fill:#FFC61B;" d="M106.139,259.582c0,0,9.471,19.828,1.226,43.189c0,0,10.993,17.52,64.931,0l-0.584-30.982
	L106.139,259.582z"/>
<path style="fill:#E09112;" d="M173.67,273.913c0,0-35.73-41.225-62.869-22.675S173.67,273.913,173.67,273.913z"/>
<path style="fill:#EAA22F;" d="M247.923,259.274c0,0-9.613,20.137-1.369,43.498c0,0-10.993,17.52-64.931,0l0.584-30.982
	L247.923,259.274z"/>
<path style="fill:#FF5419;" d="M180.25,273.913c0,0,35.73-41.225,62.869-22.675S180.25,273.913,180.25,273.913z"/>
<circle style="fill:#C92F00;" cx="176.959" cy="287.996" r="19.239"/>
<path style="fill:#930000;" d="M176.961,268.76c10.624,0,19.239,8.613,19.239,19.239c0,10.624-8.613,19.239-19.239,19.239V268.76z"
	/>
<g>
</g>
<g>
</g>
<g>
</g>
<g>
</g>
<g>
</g>
<g>
</g>
<g>
</g>
<g>
</g>
<g>
</g>
<g>
</g>
<g>
</g>
<g>
</g>
<g>
</g>
<g>
</g>
<g>
</g>
</svg>
