<svg xmlns="http://www.w3.org/2000/svg" height="512pt" version="1.1" viewBox="0 0 512 512" width="512pt">
<g id="surface1">
<path d="M 512 256 C 512 397.386719 397.386719 512 256 512 C 114.613281 512 0 397.386719 0 256 C 0 114.613281 114.613281 0 256 0 C 397.386719 0 512 114.613281 512 256 Z M 512 256 " style=" stroke:none;fill-rule:nonzero;fill:rgb(100%,27.45098%,54.901961%);fill-opacity:1;" />
<path d="M 512 256 C 512 254.480469 511.96875 252.964844 511.941406 251.449219 L 360.480469 99.988281 L 109.757812 427.867188 L 183.441406 501.550781 C 206.449219 508.339844 230.796875 512 256 512 C 397.386719 512 512 397.386719 512 256 Z M 512 256 " style=" stroke:none;fill-rule:nonzero;fill:rgb(84.313725%,15.686275%,47.058824%);fill-opacity:1;" />
<path d="M 256 147.132812 L 143.941406 147.132812 L 143.941406 122.03125 C 143.941406 96.816406 169.332031 79.515625 192.800781 88.746094 L 256 113.597656 Z M 256 147.132812 " style=" stroke:none;fill-rule:nonzero;fill:rgb(100%,69.411765%,23.137255%);fill-opacity:1;" />
<path d="M 256 147.132812 L 368.058594 147.132812 L 368.058594 122.03125 C 368.058594 96.816406 342.667969 79.515625 319.199219 88.746094 L 256 113.597656 Z M 256 147.132812 " style=" stroke:none;fill-rule:nonzero;fill:rgb(100%,64.313725%,14.901961%);fill-opacity:1;" />
<path d="M 275.5 147.132812 L 233.5 147.132812 L 233.5 123.132812 C 233.5 111.535156 242.902344 102.132812 254.5 102.132812 C 266.097656 102.132812 275.5 111.535156 275.5 123.132812 Z M 275.5 147.132812 " style=" stroke:none;fill-rule:nonzero;fill:rgb(98.823529%,60%,25.882353%);fill-opacity:1;" />
<path d="M 275.5 123.132812 C 275.5 111.761719 266.453125 102.523438 255.167969 102.167969 L 255.167969 147.132812 L 275.5 147.132812 Z M 275.5 123.132812 " style=" stroke:none;fill-rule:nonzero;fill:rgb(100%,52.941176%,23.529412%);fill-opacity:1;" />
<path d="M 109.757812 144.132812 L 402.242188 144.132812 L 402.242188 427.867188 L 109.757812 427.867188 Z M 109.757812 144.132812 " style=" stroke:none;fill-rule:nonzero;fill:rgb(47.843137%,24.313725%,70.980392%);fill-opacity:1;" />
<path d="M 255.167969 144.132812 L 402.242188 144.132812 L 402.242188 427.867188 L 255.167969 427.867188 Z M 255.167969 144.132812 " style=" stroke:none;fill-rule:nonzero;fill:rgb(38.039216%,20%,58.039216%);fill-opacity:1;" />
<path d="M 109.757812 144.132812 L 402.242188 144.132812 L 402.242188 245 L 109.757812 245 Z M 109.757812 144.132812 " style=" stroke:none;fill-rule:nonzero;fill:rgb(38.039216%,20%,58.039216%);fill-opacity:1;" />
<path d="M 255.167969 144.132812 L 402.242188 144.132812 L 402.242188 245 L 255.167969 245 Z M 255.167969 144.132812 " style=" stroke:none;fill-rule:nonzero;fill:rgb(29.411765%,10.588235%,47.843137%);fill-opacity:1;" />
<path d="M 220.046875 144.132812 L 291.953125 144.132812 L 291.953125 427.867188 L 220.046875 427.867188 Z M 220.046875 144.132812 " style=" stroke:none;fill-rule:nonzero;fill:rgb(100%,85.490196%,0%);fill-opacity:1;" />
<path d="M 255.167969 144.132812 L 291.953125 144.132812 L 291.953125 427.867188 L 255.167969 427.867188 Z M 255.167969 144.132812 " style=" stroke:none;fill-rule:nonzero;fill:rgb(92.941176%,77.647059%,2.352941%);fill-opacity:1;" />
</g>
</svg>