<svg viewBox="0 0 512 512" xmlns="http://www.w3.org/2000/svg"><path d="m512 256c0 141.386719-114.613281 256-256 256s-256-114.613281-256-256 114.613281-256 256-256 256 114.613281 256 256zm0 0" fill="#414952"/><path d="m512 256c0-12.640625-.933594-25.066406-2.703125-37.214844l-84.695313-84.699218h-132.027343l-18.859375 31.503906-24.214844-24.214844-86.621094-7.289062 55.191406 138.804687-99.402343 5.773437 95.757812 95.761719-81.425781 35.574219 101.054688 101.054688c7.234374.613281 14.550781.945312 21.945312.945312 141.386719 0 256-114.613281 256-256zm0 0" fill="#333940"/><path d="m345.007812 119.433594c-10.324218-6.78125-23.261718-7.902344-34.601562-2.992188l-32.222656 13.949219c-9.507813 4.117187-17.175782 11.09375-22.183594 19.667969-5.011719-8.574219-12.675781-15.550782-22.183594-19.667969l-32.226562-13.949219c-11.335938-4.910156-24.273438-3.789062-34.597656 2.992188-10.328126 6.785156-16.492188 18.210937-16.492188 30.5625 0 20.164062 16.402344 36.566406 36.566406 36.566406h137.867188c20.164062 0 36.566406-16.402344 36.566406-36.566406 0-12.351563-6.164062-23.777344-16.492188-30.5625zm-157.941406 42.128906c-6.378906 0-11.566406-5.1875-11.566406-11.566406 0-3.964844 1.902344-7.488282 5.214844-9.667969 1.945312-1.273437 4.117187-1.921875 6.316406-1.921875 1.554688 0 3.121094.324219 4.628906.976562l32.226563 13.949219c4.097656 1.773438 7.476562 4.667969 9.84375 8.230469zm137.867188 0h-46.664063c2.367188-3.5625 5.75-6.457031 9.847657-8.230469l32.222656-13.949219c3.636718-1.574218 7.628906-1.230468 10.945312.945313 3.3125 2.179687 5.214844 5.703125 5.214844 9.667969 0 6.378906-5.1875 11.566406-11.566406 11.566406zm0 0" fill="#fff"/><path d="m255.605469 186.5625h69.328125c20.164062 0 36.566406-16.402344 36.566406-36.566406 0-12.355469-6.164062-23.777344-16.492188-30.5625-10.324218-6.78125-23.261718-7.902344-34.601562-2.992188l-32.222656 13.949219c-9.507813 4.117187-17.175782 11.09375-22.183594 19.667969zm69.328125-25h-46.664063c2.367188-3.5625 5.75-6.457031 9.847657-8.230469l32.222656-13.949219c3.636718-1.574218 7.628906-1.230468 10.945312.945313 3.3125 2.179687 5.214844 5.703125 5.214844 9.667969 0 6.378906-5.1875 11.566406-11.566406 11.566406zm0 0" fill="#dce1eb"/><path d="m133 235.199219h246v174.800781h-246zm0 0" fill="#ff952c"/><path d="m255.605469 235.199219h123.394531v174.800781h-123.394531zm0 0" fill="#f50"/><path d="m118.667969 179.0625h274.667969v99.605469h-274.667969zm0 0" fill="#f50"/><path d="m255.605469 179.0625h137.726562v99.601562h-137.726562zm0 0" fill="#e82e10"/><path d="m222.667969 174.0625h66.667969v235.9375h-66.667969zm0 0" fill="#fff"/><path d="m289.332031 174.0625h-33.589843l-.136719 235.9375h33.726562zm0 0" fill="#dce1eb"/><path d="m439.644531 174.0625c0 33.496094-27.152343 60.648438-60.644531 60.648438s-60.644531-27.152344-60.644531-60.648438c0-33.492188 27.152343-60.644531 60.644531-60.644531s60.644531 27.152343 60.644531 60.644531zm0 0" fill="#ffdf00"/><path d="m379 113.417969c-.121094 0-.242188.007812-.363281.007812v121.273438c.121093 0 .242187.011719.363281.011719 33.492188 0 60.644531-27.152344 60.644531-60.648438 0-33.492188-27.152343-60.644531-60.644531-60.644531zm0 0" fill="#fa0"/></svg>