<svg xmlns="http://www.w3.org/2000/svg" height="512pt" version="1.1" viewBox="0 0 512 512" width="512pt">
<g id="surface1">
<path d="M 512 256 C 512 397.386719 397.386719 512 256 512 C 114.613281 512 0 397.386719 0 256 C 0 114.613281 114.613281 0 256 0 C 397.386719 0 512 114.613281 512 256 Z M 512 256 " style=" stroke:none;fill-rule:nonzero;fill:rgb(38.039216%,20%,58.039216%);fill-opacity:1;" />
<path d="M 512 256 C 512 245.539062 511.355469 235.226562 510.136719 225.09375 L 372.597656 87.554688 L 108.933594 242 L 229.21875 362.28125 L 124.5 420 L 212.863281 508.363281 C 226.886719 510.742188 241.296875 512 256 512 C 397.386719 512 512 397.386719 512 256 Z M 512 256 " style=" stroke:none;fill-rule:nonzero;fill:rgb(29.411765%,10.588235%,47.843137%);fill-opacity:1;" />
<path d="M 124.5 185 L 387.5 185 L 387.5 420 L 124.5 420 Z M 124.5 185 " style=" stroke:none;fill-rule:nonzero;fill:rgb(100%,100%,100%);fill-opacity:1;" />
<path d="M 255.761719 185 L 387.5 185 L 387.5 420 L 255.761719 420 Z M 255.761719 185 " style=" stroke:none;fill-rule:nonzero;fill:rgb(91.372549%,92.941176%,96.078431%);fill-opacity:1;" />
<path d="M 108.933594 164.5 L 403.066406 164.5 L 403.066406 242 L 108.933594 242 Z M 108.933594 164.5 " style=" stroke:none;fill-rule:nonzero;fill:rgb(100%,0%,40.784314%);fill-opacity:1;" />
<path d="M 255.761719 164.5 L 403.066406 164.5 L 403.066406 242 L 255.761719 242 Z M 255.761719 164.5 " style=" stroke:none;fill-rule:nonzero;fill:rgb(89.803922%,5.490196%,43.921569%);fill-opacity:1;" />
<path d="M 210 164.5 L 302 164.5 L 302 420 L 210 420 Z M 210 164.5 " style=" stroke:none;fill-rule:nonzero;fill:rgb(100%,84.313725%,86.27451%);fill-opacity:1;" />
<path d="M 255.761719 164.5 L 302 164.5 L 302 420 L 255.761719 420 Z M 255.761719 164.5 " style=" stroke:none;fill-rule:nonzero;fill:rgb(100%,74.509804%,76.470588%);fill-opacity:1;" />
<path d="M 256 156.1875 L 154.960938 192.273438 C 143.269531 196.449219 130.972656 187.78125 130.972656 175.367188 L 130.972656 102.769531 C 130.972656 90.359375 143.269531 81.691406 154.960938 85.867188 L 256 121.953125 Z M 256 156.1875 " style=" stroke:none;fill-rule:nonzero;fill:rgb(100%,74.509804%,76.470588%);fill-opacity:1;" />
<path d="M 256 121.953125 L 357.039062 85.867188 C 368.730469 81.691406 381.027344 90.359375 381.027344 102.769531 L 381.027344 175.367188 C 381.027344 187.78125 368.730469 196.445312 357.039062 192.273438 L 256 156.1875 Z M 256 121.953125 " style=" stroke:none;fill-rule:nonzero;fill:rgb(93.72549%,69.411765%,72.54902%);fill-opacity:1;" />
<path d="M 256 172.570312 C 238.601562 172.570312 224.5 158.46875 224.5 141.070312 L 224.5 136.570312 C 224.5 119.171875 238.601562 105.070312 256 105.070312 C 273.398438 105.070312 287.5 119.171875 287.5 136.570312 L 287.5 141.070312 C 287.5 158.46875 273.398438 172.570312 256 172.570312 Z M 256 172.570312 " style=" stroke:none;fill-rule:nonzero;fill:rgb(98.823529%,51.372549%,57.254902%);fill-opacity:1;" />
<path d="M 256 105.070312 C 255.921875 105.070312 255.84375 105.074219 255.761719 105.074219 L 255.761719 172.5625 C 255.84375 172.566406 255.921875 172.570312 256 172.570312 C 273.398438 172.570312 287.5 158.46875 287.5 141.070312 L 287.5 136.570312 C 287.5 119.171875 273.398438 105.070312 256 105.070312 Z M 256 105.070312 " style=" stroke:none;fill-rule:nonzero;fill:rgb(100%,45.098039%,64.705882%);fill-opacity:1;" />
<path d="M 318.511719 286.667969 C 318.511719 279.773438 324.101562 274.1875 330.992188 274.1875 C 336.371094 274.1875 340.957031 277.589844 342.710938 282.363281 C 344.464844 277.589844 349.046875 274.1875 354.425781 274.1875 C 361.320312 274.1875 366.90625 279.773438 366.90625 286.667969 C 366.90625 304.777344 342.710938 314.335938 342.710938 314.335938 C 342.710938 314.335938 318.511719 304.382812 318.511719 286.667969 Z M 318.511719 286.667969 " style=" stroke:none;fill-rule:nonzero;fill:rgb(89.803922%,5.490196%,43.921569%);fill-opacity:1;" />
<path d="M 318.511719 369.332031 C 318.511719 362.441406 324.101562 356.851562 330.992188 356.851562 C 336.371094 356.851562 340.957031 360.257812 342.710938 365.027344 C 344.464844 360.257812 349.046875 356.851562 354.425781 356.851562 C 361.320312 356.851562 366.90625 362.441406 366.90625 369.332031 C 366.90625 387.441406 342.710938 397 342.710938 397 C 342.710938 397 318.511719 387.050781 318.511719 369.332031 Z M 318.511719 369.332031 " style=" stroke:none;fill-rule:nonzero;fill:rgb(89.803922%,5.490196%,43.921569%);fill-opacity:1;" />
<path d="M 145.09375 286.667969 C 145.09375 279.773438 150.679688 274.1875 157.570312 274.1875 C 162.953125 274.1875 167.535156 277.589844 169.289062 282.363281 C 171.042969 277.589844 175.628906 274.1875 181.007812 274.1875 C 187.898438 274.1875 193.484375 279.773438 193.484375 286.667969 C 193.484375 304.777344 169.289062 314.335938 169.289062 314.335938 C 169.289062 314.335938 145.09375 304.382812 145.09375 286.667969 Z M 145.09375 286.667969 " style=" stroke:none;fill-rule:nonzero;fill:rgb(100%,0%,40.784314%);fill-opacity:1;" />
<path d="M 145.09375 369.332031 C 145.09375 362.441406 150.679688 356.851562 157.570312 356.851562 C 162.953125 356.851562 167.535156 360.257812 169.289062 365.027344 C 171.042969 360.257812 175.628906 356.851562 181.007812 356.851562 C 187.898438 356.851562 193.484375 362.441406 193.484375 369.332031 C 193.484375 387.441406 169.289062 397 169.289062 397 C 169.289062 397 145.09375 387.050781 145.09375 369.332031 Z M 145.09375 369.332031 " style=" stroke:none;fill-rule:nonzero;fill:rgb(100%,0%,40.784314%);fill-opacity:1;" />
</g>
</svg>