<?xml version="1.0" encoding="iso-8859-1"?>
<!-- Generator: Adobe Illustrator 19.0.0, SVG Export Plug-In . SVG Version: 6.00 Build 0)  -->
<svg version="1.1" id="Layer_1" xmlns="http://www.w3.org/2000/svg" xmlns:xlink="http://www.w3.org/1999/xlink" x="0px" y="0px"
	 viewBox="0 0 512 512" style="enable-background:new 0 0 512 512;" xml:space="preserve">
<circle style="fill:#FFD15D;" cx="256" cy="256" r="256"/>
<path style="fill:#F9B54C;" d="M269.531,511.645c125.907-6.558,227.723-104.086,240.992-228.104L392.189,165.207l-8.045,21.544
	l-44.387-44.387L227.776,313.97l-82.106-82.104L119.811,256l82.28,82.28l-67.15,38.776L269.531,511.645z"/>
<rect x="134.947" y="195.474" style="fill:#D83E20;" width="121.053" height="181.579"/>
<rect x="256" y="195.474" style="fill:#C1321F;" width="121.053" height="181.579"/>
<path style="fill:#A82116;" d="M256,165.207c0,16.715-20.325,30.265-45.396,30.265s-45.396-13.55-45.396-30.265
	s5.192-30.265,30.265-30.265S256,148.494,256,165.207z"/>
<path style="fill:#89120C;" d="M346.793,165.207c0,16.715-20.325,30.265-45.396,30.265c-25.071,0-45.396-13.55-45.396-30.265
	s35.457-30.265,60.528-30.265C341.601,134.944,346.793,148.494,346.793,165.207z"/>
<rect x="119.811" y="165.202" style="fill:#C1321F;" width="136.189" height="90.793"/>
<g>
	<rect x="256" y="165.202" style="fill:#A82116;" width="136.189" height="90.793"/>
	<rect x="225.728" y="165.202" style="fill:#A82116;" width="60.526" height="211.851"/>
</g>
<rect x="256" y="165.202" style="fill:#89120C;" width="30.263" height="211.851"/>
<g>
</g>
<g>
</g>
<g>
</g>
<g>
</g>
<g>
</g>
<g>
</g>
<g>
</g>
<g>
</g>
<g>
</g>
<g>
</g>
<g>
</g>
<g>
</g>
<g>
</g>
<g>
</g>
<g>
</g>
</svg>
