<?xml version="1.0" encoding="iso-8859-1"?>
<!-- Generator: Adobe Illustrator 19.0.0, SVG Export Plug-In . SVG Version: 6.00 Build 0)  -->
<svg version="1.1" id="Layer_1" xmlns="http://www.w3.org/2000/svg" xmlns:xlink="http://www.w3.org/1999/xlink" x="0px" y="0px"
	 viewBox="0 0 512 512" style="enable-background:new 0 0 512 512;" xml:space="preserve">
<path style="fill:#FDBA4C;" d="M509.951,223.465C493.966,97.442,386.363,0,256,0C114.615,0,0,114.615,0,256
	c0,112.141,72.112,207.43,172.489,242.055L509.951,223.465z"/>
<path style="fill:#FB9D46;" d="M512,256c0-11.021-0.697-21.88-2.049-32.535L341.405,54.919L89.043,258.783l100.174,100.174
	l-77.913,77.913l61.185,61.185C198.665,507.084,226.757,512,256,512C397.384,512,512,397.384,512,256z"/>
<polygon style="fill:#FBE287;" points="211.478,236.522 256,436.87 400.696,436.87 400.696,236.522 "/>
<g>
	<rect x="111.304" y="236.522" style="fill:#F7EDBC;" width="144.696" height="200.348"/>
	<polygon style="fill:#F7EDBC;" points="218.328,236.522 256,414.609 378.435,414.609 378.435,236.522 	"/>
</g>
<rect x="133.565" y="236.522" style="fill:#FFFFFF;" width="122.435" height="178.087"/>
<polygon style="fill:#FFD652;" points="233.739,169.739 256,258.783 422.957,258.783 422.957,192 357.267,192 "/>
<polygon style="fill:#FBE287;" points="256,169.739 154.734,192 89.043,192 89.043,258.783 256,258.783 "/>
<polygon style="fill:#D33734;" points="211.951,132.881 256.522,331.13 306.609,381.217 306.609,132.881 "/>
<polygon style="fill:#E24642;" points="256.473,132.881 206.435,132.881 206.435,381.217 256.522,331.13 "/>
<path style="fill:#D33734;" d="M269.946,54.486c-9.982,9.982-14.822,23.171-14.561,36.34l-19.213,50.633L256,192.091l65.299-36.547
	l35.107-63.864c0.167-13.242-4.829-26.592-15-36.762C321.554,35.068,289.559,34.873,269.946,54.486z"/>
<g>
	<path style="fill:#E24642;" d="M393.167,106.681c19.852,19.852,20.046,51.847,0.434,71.458
		c-9.982,9.982-23.171,14.117-36.335,13.861H256L356.405,91.681C369.647,91.513,383.003,96.515,393.167,106.681z"/>
	<path style="fill:#E24642;" d="M242.054,54.486c9.982,9.982,14.822,23.171,14.561,36.34L256,192.091l-65.299-36.547l-35.107-63.863
		c-0.167-13.242,4.829-26.592,15-36.762C190.446,35.068,222.441,34.873,242.054,54.486z"/>
</g>
<path style="fill:#F15D4A;" d="M118.833,106.681c-19.852,19.852-20.046,51.847-0.434,71.458
	c9.982,9.982,23.171,14.117,36.335,13.861H256L155.595,91.681C142.353,91.513,128.997,96.515,118.833,106.681z"/>
<g>
</g>
<g>
</g>
<g>
</g>
<g>
</g>
<g>
</g>
<g>
</g>
<g>
</g>
<g>
</g>
<g>
</g>
<g>
</g>
<g>
</g>
<g>
</g>
<g>
</g>
<g>
</g>
<g>
</g>
</svg>
