<?xml version="1.0" encoding="iso-8859-1"?>
<!-- Generator: Adobe Illustrator 19.0.0, SVG Export Plug-In . SVG Version: 6.00 Build 0)  -->
<svg version="1.1" id="Layer_1" xmlns="http://www.w3.org/2000/svg" xmlns:xlink="http://www.w3.org/1999/xlink" x="0px" y="0px"
	 viewBox="0 0 512 512" style="enable-background:new 0 0 512 512;" xml:space="preserve">
<circle style="fill:#71E2EF;" cx="256" cy="256" r="256"/>
<path style="fill:#38C6D9;" d="M282.333,510.66c109.808-11.221,199.066-91.843,223.21-197.294L303.035,110.859l-56.229,22.947
	v108.977l85.189,85.189l-183.606,48.745L282.333,510.66z"/>
<path style="fill:#FF5419;" d="M303.035,110.861c0,0-14.064,30.949-37.628,46.075s-56.442-46.075-56.442-46.075
	s5.891-5.818,37.628,0S303.035,110.861,303.035,110.861z"/>
<g>
	<path style="fill:#C92F00;" d="M254.852,112.14v46.999c3.627,0.557,7.187-0.041,10.555-2.203
		c23.564-15.126,37.628-46.075,37.628-46.075S282.512,115.688,254.852,112.14z"/>
	<path style="fill:#C92F00;" d="M129.293,318.781c0-69.979,56.729-158.384,126.707-158.384s126.707,88.405,126.707,158.384
		s-56.729,95.03-126.707,95.03S129.293,388.76,129.293,318.781z"/>
</g>
<path style="fill:#930000;" d="M256,160.397c-0.384,0-0.765,0.017-1.148,0.022v253.378c0.384,0.002,0.764,0.014,1.148,0.014
	c69.979,0,126.707-25.052,126.707-95.03S325.979,160.397,256,160.397z"/>
<polygon style="fill:#FFC61B;" points="201.285,243.283 208.405,257.708 224.323,260.022 212.804,271.25 215.524,287.104 
	201.285,279.617 187.047,287.104 189.768,271.25 178.248,260.022 194.167,257.708 "/>
<polygon style="fill:#E09112;" points="310.715,306.636 317.833,321.062 333.752,323.375 322.232,334.603 324.953,350.458 
	310.715,342.971 296.476,350.458 299.196,334.603 287.677,323.375 303.595,321.062 "/>
<polygon style="fill:#FFC61B;" points="178.578,357.179 186.744,365.854 198.522,364.046 192.793,374.494 198.153,385.134 
	186.446,382.916 177.983,391.302 176.475,379.483 165.885,374.024 176.659,368.938 "/>
<path style="fill:#FFFFFF;" d="M315.785,129.148c-5.475-3.384-12.178-3.686-17.934-0.809L256,149.266l-41.85-20.926
	c-5.76-2.879-12.46-2.577-17.934,0.809c-5.473,3.384-8.74,9.244-8.74,15.679v20.444c0,6.434,3.269,12.297,8.742,15.679
	c2.979,1.839,6.322,2.769,9.676,2.769c2.812,0,5.634-0.652,8.256-1.964l30.286-15.143l-24.738,49.476
	c-1.276,2.555-0.241,5.661,2.313,6.939c2.553,1.274,5.66,0.243,6.939-2.313l27.05-54.1l27.05,54.103
	c0.907,1.812,2.732,2.86,4.63,2.86c0.777,0,1.567-0.178,2.31-0.546c2.553-1.277,3.589-4.384,2.313-6.939l-24.738-49.476
	l30.286,15.143c2.622,1.312,5.444,1.964,8.256,1.964c3.355,0,6.699-0.929,9.676-2.769c5.475-3.382,8.742-9.244,8.742-15.679v-20.447
	C324.525,138.392,321.257,132.532,315.785,129.148z M209.523,172.504c-2.565,1.284-5.43,1.157-7.87-0.353
	c-2.438-1.505-3.836-4.013-3.836-6.878v-20.446c0-2.865,1.398-5.373,3.836-6.88c1.326-0.819,2.777-1.231,4.239-1.231
	c1.227,0,2.462,0.291,3.631,0.877l34.913,17.456L209.523,172.504z M314.182,165.271c0,2.865-1.398,5.373-3.836,6.878
	c-2.436,1.51-5.306,1.638-7.87,0.353l-34.913-17.455l34.913-17.456c2.563-1.283,5.434-1.15,7.87,0.353
	c2.438,1.507,3.836,4.015,3.836,6.88V165.271z"/>
<path style="fill:#D0D1D3;" d="M315.785,129.148c-5.475-3.384-12.178-3.686-17.934-0.809L256,149.266l-1.148-0.574v20.218
	l1.148-2.298l27.05,54.103c0.907,1.812,2.732,2.86,4.63,2.86c0.777,0,1.567-0.178,2.31-0.546c2.553-1.277,3.589-4.384,2.313-6.939
	l-24.738-49.476l30.286,15.143c2.622,1.312,5.444,1.964,8.256,1.964c3.355,0,6.699-0.929,9.676-2.769
	c5.475-3.382,8.742-9.244,8.742-15.679v-20.445C324.525,138.392,321.257,132.532,315.785,129.148z M314.182,165.271
	c0,2.865-1.398,5.373-3.836,6.878c-2.436,1.51-5.306,1.638-7.87,0.353l-34.913-17.455l34.913-17.456
	c2.563-1.283,5.434-1.15,7.87,0.353c2.438,1.507,3.836,4.015,3.836,6.88V165.271z"/>
<g>
</g>
<g>
</g>
<g>
</g>
<g>
</g>
<g>
</g>
<g>
</g>
<g>
</g>
<g>
</g>
<g>
</g>
<g>
</g>
<g>
</g>
<g>
</g>
<g>
</g>
<g>
</g>
<g>
</g>
</svg>
