<?xml version="1.0" encoding="iso-8859-1"?>
<!-- Generator: Adobe Illustrator 19.0.0, SVG Export Plug-In . SVG Version: 6.00 Build 0)  -->
<svg version="1.1" id="Layer_1" xmlns="http://www.w3.org/2000/svg" xmlns:xlink="http://www.w3.org/1999/xlink" x="0px" y="0px"
	 viewBox="0 0 512 512" style="enable-background:new 0 0 512 512;" xml:space="preserve">
<circle style="fill:#FFD15D;" cx="256" cy="256" r="256"/>
<path style="fill:#F9B54C;" d="M263.633,511.878c120.277-3.524,219.741-90,243.148-204.207L341.333,142.222l-86.34,36.418
	l-46.975-45.899l-37.352,9.481l136.89,136.89l-44.672,33.766l-93.943-93.943l-26.721,8.62l100.536,100.536l-92.779,70.13
	L263.633,511.878z"/>
<rect x="149.98" y="199.111" style="fill:#FFFFFF;" width="105.451" height="199.111"/>
<rect x="255.431" y="199.111" style="fill:#E6F3FF;" width="106.594" height="199.111"/>
<rect x="142.222" y="170.667" style="fill:#FC6F58;" width="113.209" height="56.889"/>
<rect x="255.431" y="170.667" style="fill:#F1543F;" width="114.347" height="56.889"/>
<rect x="227.556" y="170.667" style="fill:#FD8469;" width="56.889" height="227.556"/>
<rect x="255.431" y="170.667" style="fill:#FC6F58;" width="29.018" height="227.556"/>
<polygon style="fill:#F1543F;" points="256,170.667 199.111,113.778 170.667,142.222 227.556,170.667 "/>
<polygon style="fill:#C1321F;" points="256,170.667 312.889,113.778 341.333,142.222 284.444,170.667 "/>
<g>
</g>
<g>
</g>
<g>
</g>
<g>
</g>
<g>
</g>
<g>
</g>
<g>
</g>
<g>
</g>
<g>
</g>
<g>
</g>
<g>
</g>
<g>
</g>
<g>
</g>
<g>
</g>
<g>
</g>
</svg>
