<?xml version="1.0" encoding="iso-8859-1"?>
<!-- Generator: Adobe Illustrator 19.0.0, SVG Export Plug-In . SVG Version: 6.00 Build 0)  -->
<svg version="1.1" id="Capa_1" xmlns="http://www.w3.org/2000/svg" xmlns:xlink="http://www.w3.org/1999/xlink" x="0px" y="0px"
	 viewBox="0 0 512 512" style="enable-background:new 0 0 512 512;" xml:space="preserve">
<circle style="fill:#00BAFF;" cx="256" cy="256" r="256"/>
<path style="fill:#008CC3;" d="M512,256c0-6.012-0.224-11.971-0.631-17.88L415,141.751l-13.073,21.261l-60.219-60.219L97,212.042
	l114.532,114.532l-103.255,63.638l120.326,120.326C237.605,511.496,246.743,512,256,512C397.385,512,512,397.385,512,256z"/>
<rect x="108.28" y="198.51" style="fill:#FFDC00;" width="295.45" height="191.7"/>
<rect x="256" y="198.51" style="fill:#FFC000;" width="147.72" height="191.7"/>
<rect x="97" y="141.75" style="fill:#FFECB3;" width="318" height="70.29"/>
<rect x="256" y="141.75" style="fill:#FFD863;" width="159" height="70.29"/>
<rect x="216.53" y="141.75" style="fill:#FF6838;" width="78.936" height="248.46"/>
<rect x="256" y="141.75" style="fill:#AE4E32;" width="39.468" height="248.46"/>
<path style="fill:#F1333F;" d="M248.67,141.751h-83.447v-26.785c0-11.428,10.956-19.666,21.934-16.493l49.111,14.192
	c7.345,2.123,12.402,8.847,12.402,16.493L248.67,141.751L248.67,141.751z"/>
<g>
	<path style="fill:#AE283F;" d="M263.33,141.751h83.447v-26.785c0-11.428-10.956-19.666-21.934-16.493l-49.111,14.192
		c-7.345,2.123-12.402,8.847-12.402,16.493V141.751z"/>
	<path style="fill:#AE283F;" d="M283.064,141.751h-54.128v-24.057c0-7.058,5.722-12.78,12.78-12.78h28.567
		c7.058,0,12.78,5.722,12.78,12.78v24.057H283.064z"/>
</g>
<path style="fill:#8E1630;" d="M283.064,117.695c0-7.058-5.722-12.78-12.78-12.78H256v36.837h27.064V117.695z"/>
<g>
</g>
<g>
</g>
<g>
</g>
<g>
</g>
<g>
</g>
<g>
</g>
<g>
</g>
<g>
</g>
<g>
</g>
<g>
</g>
<g>
</g>
<g>
</g>
<g>
</g>
<g>
</g>
<g>
</g>
</svg>
