<svg height="512pt" viewBox="0 0 512 512" width="512pt" xmlns="http://www.w3.org/2000/svg"><path d="m512 256c0 141.386719-114.613281 256-256 256s-256-114.613281-256-256 114.613281-256 256-256 256 114.613281 256 256zm0 0" fill="#00edff"/><path d="m512 256c0-6.382812-.242188-12.707031-.699219-18.972656l-98.082031-98.082032-1.558594 2.625-50.707031-50.707031-13.816406 68.273438-59.136719-59.136719-189.222656 273.054688 138.246094 138.246093c6.265624.457031 12.59375.699219 18.976562.699219 141.386719 0 256-114.613281 256-256zm0 0" fill="#07bee8"/><path d="m98.777344 138.945312h314.441406v234.109376h-314.441406zm0 0" fill="#994c0f"/><path d="m256.210938 138.945312h157.007812v234.105469h-157.007812zm0 0" fill="#8e2b10"/><path d="m119 162.917969h46.074219v46.074219h-46.074219zm0 0" fill="#bf6015"/><path d="m119 232.964844h46.074219v46.074218h-46.074219zm0 0" fill="#bf6015"/><path d="m119 303.007812h46.074219v46.074219h-46.074219zm0 0" fill="#bf6015"/><path d="m185.5 162.917969h46.074219v46.074219h-46.074219zm0 0" fill="#bf6015"/><path d="m185.5 232.964844h46.074219v46.074218h-46.074219zm0 0" fill="#bf6015"/><path d="m185.5 303.007812h46.074219v46.074219h-46.074219zm0 0" fill="#bf6015"/><g fill="#994c0f"><path d="m276 162.917969h46.074219v46.074219h-46.074219zm0 0"/><path d="m276 232.964844h46.074219v46.074218h-46.074219zm0 0"/><path d="m276 303.007812h46.074219v46.074219h-46.074219zm0 0"/><path d="m342.5 162.917969h46.074219v46.074219h-46.074219zm0 0"/><path d="m342.5 232.964844h46.074219v46.074218h-46.074219zm0 0"/><path d="m342.5 303.007812h46.074219v46.074219h-46.074219zm0 0"/></g><path d="m223.996094 138.945312h64.003906v234.109376h-64.003906zm0 0" fill="#ff0062"/><path d="m256.210938 138.945312h31.789062v234.105469h-31.789062zm0 0" fill="#e20560"/><path d="m243.625 161.167969h-99.355469v-51.820313c0-21.53125 22.945313-35.296875 41.941407-25.164062l57.414062 30.621094zm0 0" fill="#dd195a"/><path d="m243.625 161.167969h-99.355469v-51.820313c0-21.53125 22.945313-35.296875 41.941407-25.164062l57.414062 30.621094zm0 0" fill="#ff0062"/><path d="m268.375 161.167969h99.355469v-51.820313c0-21.53125-22.945313-35.296875-41.941407-25.164062l-57.414062 30.621094zm0 0" fill="#e20560"/><path d="m223.996094 100h64.003906v61.167969h-64.003906zm0 0" fill="#ff6e73"/><path d="m256.210938 100h31.789062v61.167969h-31.789062zm0 0" fill="#ff5a5f"/></svg>