<?xml version="1.0" encoding="iso-8859-1"?>
<!-- Generator: Adobe Illustrator 19.0.0, SVG Export Plug-In . SVG Version: 6.00 Build 0)  -->
<svg version="1.1" id="Capa_1" xmlns="http://www.w3.org/2000/svg" xmlns:xlink="http://www.w3.org/1999/xlink" x="0px" y="0px"
	 viewBox="0 0 512.007 512.007" style="enable-background:new 0 0 512.007 512.007;" xml:space="preserve">
<circle style="fill:#E25F3F;" cx="256.003" cy="256.003" r="256.003"/>
<path style="fill:#A2482A;" d="M383.19,161.655l-44.968-44.967l-44.66-17.686l-36.169,38.769l-38.769-38.769l-44.66,17.686
	l17.686,44.66l-68.093,0.307v63.18l14.326,14.326v23.334l0,0v150.506l98.238,98.238c6.561,0.504,13.19,0.763,19.88,0.763
	c132.02,0,240.685-99.939,254.503-228.287L388.445,161.654l0,0L383.19,161.655L383.19,161.655z"/>
<polygon style="fill:#E5BF2B;" points="338.222,116.687 293.562,99.001 235.665,161.058 320.536,161.347 "/>
<polygon style="fill:#C3A534;" points="338.222,116.687 235.665,161.058 320.536,161.347 "/>
<polygon style="fill:#F6D433;" points="173.962,116.687 218.623,99.001 276.52,161.058 191.648,161.347 "/>
<polygon style="fill:#E5BF2B;" points="173.962,116.687 276.52,161.058 191.648,161.347 "/>
<rect id="SVGCleanerId_0" x="137.885" y="224.83" style="fill:#4AB6BF;" width="236.237" height="188.165"/>
<g>
	<rect id="SVGCleanerId_0_1_" x="137.885" y="224.83" style="fill:#4AB6BF;" width="236.237" height="188.165"/>
</g>
<rect x="123.56" y="161.063" style="fill:#76C8DA;" width="264.886" height="63.767"/>
<rect x="256.003" y="224.83" style="fill:#38979E;" width="118.118" height="188.165"/>
<rect x="256.003" y="160.945" style="fill:#4AB6BF;" width="132.443" height="63.887"/>
<g>
	<rect x="231.169" y="160.965" style="fill:#F6D433;" width="49.669" height="252.04"/>
	<rect x="137.885" y="262.491" style="fill:#F6D433;" width="236.237" height="49.669"/>
</g>
<rect x="256.003" y="262.491" style="fill:#D4B331;" width="118.118" height="49.669"/>
<rect x="256.092" y="160.965" style="fill:#E5BF2B;" width="24.746" height="252.04"/>
<g>
</g>
<g>
</g>
<g>
</g>
<g>
</g>
<g>
</g>
<g>
</g>
<g>
</g>
<g>
</g>
<g>
</g>
<g>
</g>
<g>
</g>
<g>
</g>
<g>
</g>
<g>
</g>
<g>
</g>
</svg>
