<?xml version="1.0" encoding="iso-8859-1"?>
<!-- Generator: Adobe Illustrator 19.0.0, SVG Export Plug-In . SVG Version: 6.00 Build 0)  -->
<svg version="1.1" id="Capa_1" xmlns="http://www.w3.org/2000/svg" xmlns:xlink="http://www.w3.org/1999/xlink" x="0px" y="0px"
	 viewBox="0 0 512 512" style="enable-background:new 0 0 512 512;" xml:space="preserve">
<circle style="fill:#F92814;" cx="256" cy="256" r="256"/>
<path style="fill:#C10000;" d="M510.541,283.378L408.333,179.667l-62-60.496l-20.257,78.406L282.5,154L103.667,262l104.786,104.786
	l-91.12,48.88l92.094,92.094C224.531,510.537,240.094,512,256,512C388.135,512,496.876,411.888,510.541,283.378z"/>
<polygon style="fill:#FFDA45;" points="269.79,199.496 115.667,199.496 165.667,119.17 "/>
<polygon style="fill:#FFBC36;" points="242.21,199.496 396.333,199.496 346.333,119.17 "/>
<rect x="229.5" y="154" style="fill:#FAB9AF;" width="53" height="50"/>
<rect x="255.57" y="154" style="fill:#FAA598;" width="26.929" height="50"/>
<rect x="117.33" y="214.4" style="fill:#FFDA45;" width="277.33" height="201.27"/>
<rect x="255.57" y="214.4" style="fill:#FFBC36;" width="139.09" height="201.27"/>
<rect x="103.67" y="179.67" style="fill:#19CFFC;" width="304.67" height="82.33"/>
<rect x="255.57" y="179.67" style="fill:#1EA1E3;" width="152.76" height="82.33"/>
<rect x="216.67" y="179.67" style="fill:#FFFFFF;" width="78.67" height="236"/>
<rect x="255.57" y="179.67" style="fill:#FFF5F5;" width="39.762" height="236"/>
<g>
</g>
<g>
</g>
<g>
</g>
<g>
</g>
<g>
</g>
<g>
</g>
<g>
</g>
<g>
</g>
<g>
</g>
<g>
</g>
<g>
</g>
<g>
</g>
<g>
</g>
<g>
</g>
<g>
</g>
</svg>
