<?xml version="1.0" encoding="iso-8859-1"?>
<!-- Generator: Adobe Illustrator 19.0.0, SVG Export Plug-In . SVG Version: 6.00 Build 0)  -->
<svg version="1.1" id="Capa_1" xmlns="http://www.w3.org/2000/svg" xmlns:xlink="http://www.w3.org/1999/xlink" x="0px" y="0px"
	 viewBox="0 0 512 512" style="enable-background:new 0 0 512 512;" xml:space="preserve">
<circle style="fill:#42DB8F;" cx="256" cy="256" r="256"/>
<path style="fill:#0ACB72;" d="M512,256c0-4.124-0.107-8.223-0.3-12.3L371.25,103.25L96.5,231l110.043,110.043L112.5,391
	l119.908,119.908c7.77,0.71,15.636,1.092,23.592,1.092C397.385,512,512,397.385,512,256z"/>
<rect x="112.5" y="196" style="fill:#FF3D29;" width="287" height="195"/>
<g>
	<rect x="255.57" y="196" style="fill:#FF1B1B;" width="143.93" height="195"/>
	<rect x="96.5" y="169" style="fill:#FF1B1B;" width="319" height="62"/>
</g>
<rect x="255.57" y="169" style="fill:#D60000;" width="159.93" height="62"/>
<rect x="220.5" y="164" style="fill:#FFDE1F;" width="71" height="227"/>
<rect x="255.57" y="164" style="fill:#F9C41E;" width="35.929" height="227"/>
<polygon style="fill:#FEC928;" points="256,169 140.75,169 140.75,103.25 256,141.5 "/>
<polygon style="fill:#FE9F00;" points="256,169 371.25,169 371.25,103.25 256,141.5 "/>
<rect x="229" y="131.17" style="fill:#FEF5E0;" width="53.17" height="37.667"/>
<rect x="255.57" y="131.17" style="fill:#FEDFB1;" width="26.595" height="37.667"/>
<g>
</g>
<g>
</g>
<g>
</g>
<g>
</g>
<g>
</g>
<g>
</g>
<g>
</g>
<g>
</g>
<g>
</g>
<g>
</g>
<g>
</g>
<g>
</g>
<g>
</g>
<g>
</g>
<g>
</g>
</svg>
