<?xml version="1.0" encoding="iso-8859-1"?>
<!-- Generator: Adobe Illustrator 19.0.0, SVG Export Plug-In . SVG Version: 6.00 Build 0)  -->
<svg version="1.1" id="Layer_1" xmlns="http://www.w3.org/2000/svg" xmlns:xlink="http://www.w3.org/1999/xlink" x="0px" y="0px"
	 viewBox="0 0 512 512" style="enable-background:new 0 0 512 512;" xml:space="preserve">
<circle style="fill:#B5F1F4;" cx="256" cy="256" r="256"/>
<path style="fill:#84DBFF;" d="M256,512c119.56,0,219.97-81.965,248.122-192.767L384,199.111l-6.156,5.084l-48.235-48.235
	l-40.932,50.233l-48.288-48.288l-15.131,24.254l45.737,45.737L128,256l107.654,107.654l-93.432,34.568L256,512z"/>
<path style="fill:#F1543F;" d="M256,199.111c0,23.564-19.103,28.875-42.667,28.875s-42.667-19.103-42.667-42.667
	s19.103-42.667,42.667-42.667S256,175.547,256,199.111z"/>
<path style="fill:#C1321F;" d="M256,199.111c0,23.564,19.103,28.875,42.667,28.875s42.667-19.103,42.667-42.667
	s-19.103-42.667-42.667-42.667S256,175.547,256,199.111z"/>
<rect x="142.222" y="227.556" style="fill:#324A5E;" width="227.556" height="170.667"/>
<g>
	<rect x="256" y="227.556" style="fill:#2B3B4E;" width="113.778" height="170.667"/>
	<rect x="128" y="199.111" style="fill:#2B3B4E;" width="256" height="56.889"/>
</g>
<rect x="256" y="199.111" style="fill:#1C2935;" width="128" height="56.889"/>
<rect x="227.556" y="199.111" style="fill:#FC6F58;" width="56.889" height="199.111"/>
<rect x="256" y="199.111" style="fill:#F1543F;" width="28.444" height="199.111"/>
<g>
</g>
<g>
</g>
<g>
</g>
<g>
</g>
<g>
</g>
<g>
</g>
<g>
</g>
<g>
</g>
<g>
</g>
<g>
</g>
<g>
</g>
<g>
</g>
<g>
</g>
<g>
</g>
<g>
</g>
</svg>
