<?xml version="1.0" encoding="iso-8859-1"?>
<!-- Generator: Adobe Illustrator 19.0.0, SVG Export Plug-In . SVG Version: 6.00 Build 0)  -->
<svg version="1.1" id="Layer_1" xmlns="http://www.w3.org/2000/svg" xmlns:xlink="http://www.w3.org/1999/xlink" x="0px" y="0px"
	 viewBox="0 0 512 512" style="enable-background:new 0 0 512 512;" xml:space="preserve">
<circle style="fill:#FFD15D;" cx="256" cy="256" r="256"/>
<g>
	<path style="fill:#F9B54C;" d="M494.297,349.727L333.762,189.192l-2.062,2.707l-66.965-66.965l-2.029,3.753l-19.702,8.192
		l74.128,74.128l-9.471,12.422l-34.235-34.237l-21.202,38.526l-24.943-22.849l-8.618-8.62l-31.361,33.506l-49.188-49.188
		l-10.093,64.929l13.257,17.122l-79.719,53.529l28.963,28.963l-19.128,6.394L230.638,510.75c8.344,0.821,16.803,1.25,25.362,1.25
		C364.301,512,456.894,444.747,494.297,349.727z"/>
	<path style="fill:#F9B54C;" d="M503.803,320.488c4.848-18.68,7.64-38.19,8.12-58.271L337.98,88.278l-23.499,14.929l-14.727,7.899
		l47.776,47.776c-1.807-0.109-1.857,2.02-3.679,1.595L503.803,320.488z"/>
</g>
<path style="fill:#C1321F;" d="M221.522,210.103c0-16.662,13.507-30.168,30.168-30.168s30.168,13.507,30.168,30.168
	c0-16.662,13.507-30.168,30.168-30.168c16.662,0,30.168,13.507,30.168,30.168c0,28.848-60.337,63.354-60.337,63.354
	S221.522,240.576,221.522,210.103z"/>
<g>
	<path style="fill:#A82116;" d="M281.859,210.103c0-16.662,13.507-30.168,30.168-30.168c16.662,0,30.168,13.507,30.168,30.168
		c0,28.848-60.337,63.354-60.337,63.354V210.103z"/>
	<path style="fill:#A82116;" d="M291.34,96.777c0-6.903,5.596-12.498,12.498-12.498s12.498,5.596,12.498,12.498
		c0-6.903,5.596-12.498,12.498-12.498c6.902,0,12.498,5.596,12.498,12.498c0,11.952-24.997,26.246-24.997,26.246
		S291.34,109.401,291.34,96.777z"/>
</g>
<path style="fill:#F4E3C3;" d="M238.761,129.358c0-3.808,3.088-6.896,6.896-6.896s6.896,3.088,6.896,6.896
	c0-3.808,3.088-6.896,6.896-6.896c3.808,0,6.896,3.088,6.896,6.896c0,6.594-13.791,14.481-13.791,14.481
	S238.761,136.323,238.761,129.358z"/>
<path style="fill:#D83E20;" d="M335.3,147.222c0-5.713,4.63-10.343,10.343-10.343s10.343,4.63,10.343,10.343
	c0-5.713,4.63-10.343,10.343-10.343s10.343,4.63,10.343,10.343c0,9.89-20.687,21.721-20.687,21.721S335.3,157.67,335.3,147.222z"/>
<rect x="156.513" y="232.02" style="fill:#FFFFFF;" width="96.047" height="181.648"/>
<rect x="252.552" y="232.02" style="fill:#E6F3FF;" width="97.401" height="181.648"/>
<rect x="41.236" y="247.929" transform="matrix(-0.4917 0.8708 -0.8708 -0.4917 454.838 282.2541)" style="fill:#FC6F58;" width="207.599" height="51.908"/>
<rect x="227.28" y="232.02" style="fill:#FD8469;" width="51.907" height="181.648"/>
<rect x="252.552" y="232.02" style="fill:#FC6F58;" width="26.627" height="181.648"/>
<g>
	<polygon style="fill:#F1543F;" points="122.43,261.118 51.717,280.791 61.554,316.149 109.67,283.715 	"/>
	<polygon style="fill:#F1543F;" points="122.43,261.117 102.755,190.404 138.112,180.567 135.19,238.52 	"/>
</g>
<g>
</g>
<g>
</g>
<g>
</g>
<g>
</g>
<g>
</g>
<g>
</g>
<g>
</g>
<g>
</g>
<g>
</g>
<g>
</g>
<g>
</g>
<g>
</g>
<g>
</g>
<g>
</g>
<g>
</g>
</svg>
