<?xml version="1.0" encoding="iso-8859-1"?>
<!-- Generator: Adobe Illustrator 19.0.0, SVG Export Plug-In . SVG Version: 6.00 Build 0)  -->
<svg version="1.1" id="Capa_1" xmlns="http://www.w3.org/2000/svg" xmlns:xlink="http://www.w3.org/1999/xlink" x="0px" y="0px"
	 viewBox="0 0 512.001 512.001" style="enable-background:new 0 0 512.001 512.001;" xml:space="preserve">
<circle style="fill:#35CCFF;" cx="256" cy="256" r="256"/>
<path style="fill:#00BAFF;" d="M256,512.001c141.385,0,256-114.616,256-256.001c0-0.112-0.004-0.223-0.004-0.335L377.75,121.42
	l-11.842,17.988L321.291,94.79L134.25,196.42l92.011,92.011L148,329.92l37.795,37.795L79.383,441.318
	C125.321,485.113,187.521,512.001,256,512.001z"/>
<path style="fill:#FFECB3;" d="M79.383,441.318l27.408-18.436c12.739-7.364,27.952-8.637,41.74-3.48l82.86,30.982
	c15.286,5.155,31.785,4.317,46.468-2.356l132.312-57.509c6.103-3.538,8.57-11.244,5.613-17.68c-2.594-5.649-8.69-8.864-14.819-7.835
	c-0.088,0.015-0.175,0.028-0.263,0.04l-102.948,13.279c-0.131,0.781-0.3,1.559-0.504,2.337
	c-3.221,12.186-14.705,20.235-27.215,19.082L210.6,394.4c-3.76-0.336-6.532-3.658-6.194-7.417c0.336-3.76,3.674-6.618,7.416-6.195
	l59.434,5.34c5.871,0.499,11.266-3.239,12.779-8.962c0.824-3.123,0.384-6.382-1.242-9.174c-1.626-2.794-4.242-4.786-7.365-5.611
	l-76.355-20.166c-8.576-2.263-17.574-2.032-26.022,0.676l-140.93,37.321C44.748,402.923,60.715,423.521,79.383,441.318z"/>
<g>
	<path style="fill:#FFD863;" d="M271.257,386.129c5.871,0.499,11.266-3.239,12.779-8.962c0.824-3.123,0.384-6.382-1.242-9.173
		c-1.626-2.794-4.242-4.787-7.365-5.611l-19.476-5.144v27.515L271.257,386.129z"/>
	<path style="fill:#FFD863;" d="M415.784,372.838c-2.594-5.649-8.69-8.864-14.819-7.835c-0.088,0.015-0.175,0.028-0.263,0.04
		l-102.948,13.279c-0.131,0.78-0.3,1.559-0.504,2.336c-3.221,12.186-14.705,20.235-27.215,19.082l-14.082-1.265v55.083
		c7.496-0.512,14.907-2.351,21.906-5.532l132.312-57.509C416.274,386.981,418.741,379.274,415.784,372.838z"/>
</g>
<rect x="148" y="153.42" style="fill:#FF3F84;" width="216" height="176.5"/>
<g>
	<rect x="255.95" y="153.42" style="fill:#983262;" width="108.05" height="176.5"/>
	<rect x="134.25" y="121.42" style="fill:#983262;" width="243.5" height="75"/>
</g>
<rect x="255.95" y="121.42" style="fill:#662E57;" width="121.8" height="75"/>
<rect x="235.5" y="121.42" style="fill:#FFDC00;" width="46" height="208.5"/>
<rect x="255.95" y="121.42" style="fill:#FFC000;" width="25.548" height="208.5"/>
<path style="fill:#FF9451;" d="M248.75,121.42h-72.5l10.05-20.567c5.935-12.146,21.476-15.864,32.265-7.719l30.185,22.787V121.42z"
	/>
<g>
	<path style="fill:#F7674F;" d="M263.25,121.42h72.5l-10.05-20.567c-5.935-12.146-21.476-15.864-32.265-7.719L263.25,115.92V121.42z
		"/>
	<rect x="233.35" y="104.3" style="fill:#F7674F;" width="45.28" height="17.12"/>
</g>
<rect x="255.95" y="104.3" style="fill:#D14D3B;" width="22.683" height="17.12"/>
<g>
</g>
<g>
</g>
<g>
</g>
<g>
</g>
<g>
</g>
<g>
</g>
<g>
</g>
<g>
</g>
<g>
</g>
<g>
</g>
<g>
</g>
<g>
</g>
<g>
</g>
<g>
</g>
<g>
</g>
</svg>
