<?xml version="1.0" encoding="iso-8859-1"?>
<!-- Generator: Adobe Illustrator 19.0.0, SVG Export Plug-In . SVG Version: 6.00 Build 0)  -->
<svg version="1.1" id="Layer_1" xmlns="http://www.w3.org/2000/svg" xmlns:xlink="http://www.w3.org/1999/xlink" x="0px" y="0px"
	 viewBox="0 0 512 512" style="enable-background:new 0 0 512 512;" xml:space="preserve">
<circle style="fill:#71E2EF;" cx="256" cy="256" r="256"/>
<path style="fill:#38C6D9;" d="M263.359,511.888c131.041-3.699,237.43-105.87,247.801-235.136L408.831,174.423l-21.328,25.683
	l-51.022-51.022l-21.437,20.002l53.657,53.657l-23.145,27.869l-97.549-97.549l-7.092,6.828l98.325,98.325l-28.936,34.849
	l-92.772,0.319l-85.652-85.652l-32.323,19.825l88.055,88.055l-69.154,51.374L263.359,511.888z"/>
<path style="fill:#B54324;" d="M256,172.822h-85.333v-12.138c0-9.006,7.301-16.306,16.306-16.306h40.582
	C243.266,144.377,256,157.112,256,172.822L256,172.822z"/>
<path style="fill:#930000;" d="M256,172.822h85.333v-12.138c0-9.006-7.301-16.306-16.305-16.306h-40.584
	C268.734,144.377,256,157.112,256,172.822L256,172.822z"/>
<path style="fill:#386895;" d="M113.778,199.111v158.096c0,6.942,5.629,12.571,12.571,12.571H256V199.111H113.778z"/>
<g>
	<path style="fill:#273B7A;" d="M256,199.111v170.667h129.652c6.942,0,12.571-5.629,12.571-12.571V199.111H256z"/>
	<path style="fill:#273B7A;" d="M112.126,170.667c-6.942,0-12.571,5.629-12.571,12.571v44.318H256v-56.889H112.126z"/>
</g>
<path style="fill:#121149;" d="M412.444,183.237c0-6.942-5.629-12.571-12.571-12.571H256v56.889h156.444V183.237z"/>
<rect x="227.556" y="170.667" style="fill:#D35933;" width="56.889" height="199.111"/>
<rect x="256" y="170.667" style="fill:#B54324;" width="28.444" height="199.111"/>
<g>
</g>
<g>
</g>
<g>
</g>
<g>
</g>
<g>
</g>
<g>
</g>
<g>
</g>
<g>
</g>
<g>
</g>
<g>
</g>
<g>
</g>
<g>
</g>
<g>
</g>
<g>
</g>
<g>
</g>
</svg>
