<?xml version="1.0" encoding="iso-8859-1"?>
<!-- Generator: Adobe Illustrator 19.0.0, SVG Export Plug-In . SVG Version: 6.00 Build 0)  -->
<svg version="1.1" id="Capa_1" xmlns="http://www.w3.org/2000/svg" xmlns:xlink="http://www.w3.org/1999/xlink" x="0px" y="0px"
	 viewBox="0 0 512 512" style="enable-background:new 0 0 512 512;" xml:space="preserve">
<circle style="fill:#35CCFF;" cx="256" cy="256" r="256"/>
<path style="fill:#00BAFF;" d="M512,256c0-6.374-0.241-12.691-0.699-18.948l-91.507-91.507l-10.542,23.649l-62.554-62.554
	L90.304,364.162L237.47,511.328C243.59,511.766,249.768,512,256,512C397.385,512,512,397.385,512,256z"/>
<path style="fill:#FFDC00;" d="M247,142.897H147l11.889-26.779c8.101-18.246,30.607-24.908,47.334-14.012L247,128.667V142.897z"/>
<path style="fill:#FFC000;" d="M265,142.897h100l-11.889-26.779c-8.101-18.246-30.607-24.908-47.334-14.012L265,128.667V142.897z"/>
<path style="fill:#F1333F;" d="M403.577,373.436H108.423c-12.342,0-22.347-10.005-22.347-22.347V160.91
	c0-12.342,10.005-22.347,22.347-22.347h295.154c12.342,0,22.347,10.005,22.347,22.347v190.18
	C425.924,363.431,415.919,373.436,403.577,373.436z"/>
<path style="fill:#AE283F;" d="M403.577,138.564H255.5v234.872h148.077c12.342,0,22.347-10.005,22.347-22.347V160.91
	C425.924,148.569,415.919,138.564,403.577,138.564z"/>
<rect x="86.08" y="181" style="fill:#333333;" width="339.85" height="64.67"/>
<rect x="255.5" y="181" style="fill:#1A1A1A;" width="170.42" height="64.67"/>
<rect x="226.67" y="129.33" style="fill:#FFECB3;" width="58.667" height="244.1"/>
<rect x="255.5" y="129.33" style="fill:#FFD863;" width="29.833" height="244.1"/>
<path style="fill:#FF9451;" d="M226.667,138.564v-14.897c0-6.443,5.223-11.667,11.667-11.667h35.333
	c6.443,0,11.667,5.223,11.667,11.667v14.897H226.667z"/>
<path style="fill:#F7674F;" d="M285.333,123.667c0-6.443-5.223-11.667-11.667-11.667H255.5v26.564h29.833V123.667z"/>
<g>
</g>
<g>
</g>
<g>
</g>
<g>
</g>
<g>
</g>
<g>
</g>
<g>
</g>
<g>
</g>
<g>
</g>
<g>
</g>
<g>
</g>
<g>
</g>
<g>
</g>
<g>
</g>
<g>
</g>
</svg>
