<svg height="512pt" viewBox="0 0 512 512" width="512pt" xmlns="http://www.w3.org/2000/svg"><path d="m512 256c0 141.386719-114.613281 256-256 256s-256-114.613281-256-256 114.613281-256 256-256 256 114.613281 256 256zm0 0" fill="#4bb3a4"/><path d="m512 256c0-10.089844-.601562-20.039062-1.738281-29.824219l-96.675781-96.675781-315.171876 253 127.761719 127.761719c9.785157 1.132812 19.734375 1.738281 29.824219 1.738281 141.386719 0 256-114.613281 256-256zm0 0" fill="#407069"/><path d="m255.382812 129.5-18.464843 126.5 18.464843 126.5h85.082032l24.621094-48.5 48.5-24.625v-179.875zm0 0" fill="#ffea7c"/><path d="m98.414062 129.5h156.972657v253h-156.972657zm0 0" fill="#ffffc2"/><path d="m340.464844 382.5 73.121094-73.125h-73.121094zm0 0" fill="#ffd15e"/><path d="m413.585938 197.214844h-158.203126l-12.308593 9.230468 12.308593 9.234376h158.203126zm0 0" fill="#ed2400"/><path d="m255.382812 197.214844h-70.789062v-67.714844h-18.464844v67.714844h-67.714844v18.464844h67.714844v166.820312h18.464844v-166.820312h70.789062zm0 0" fill="#f64213"/></svg>