<?xml version="1.0" encoding="iso-8859-1"?>
<!-- Generator: Adobe Illustrator 19.0.0, SVG Export Plug-In . SVG Version: 6.00 Build 0)  -->
<svg version="1.1" id="Capa_1" xmlns="http://www.w3.org/2000/svg" xmlns:xlink="http://www.w3.org/1999/xlink" x="0px" y="0px"
	 viewBox="0 0 512 512" style="enable-background:new 0 0 512 512;" xml:space="preserve">
<circle style="fill:#FE7043;" cx="256" cy="256" r="256"/>
<path style="fill:#FE5722;" d="M452,256l-350.833,44.156L307.771,506.76c99.024-20.337,177.172-97.859,198.455-196.534L452,256z"/>
<path style="fill:#FFFFFF;" d="M452,256c0,0-87.752,116.598-196,116.598S60,256,60,256s87.752-116.598,196-116.598S452,256,452,256z
	"/>
<path style="fill:#E6E6E6;" d="M256,139.402c-0.142,0-0.282,0.007-0.424,0.007v233.182c0.142,0,0.282,0.007,0.424,0.007
	C364.248,372.598,452,256,452,256S364.248,139.402,256,139.402z"/>
<circle style="fill:#00AFFE;" cx="255.58" cy="254.73" r="110.06"/>
<path style="fill:#03A8F3;" d="M255.577,144.665C255.576,144.665,255.576,144.665,255.577,144.665l-0.001,220.13h0.001
	c60.787,0,110.065-49.278,110.065-110.065S316.364,144.665,255.577,144.665z"/>
<polygon style="fill:#FEED58;" points="256,153.667 285.189,212.811 350.459,222.295 303.23,268.333 314.379,333.338 256,302.647 
	197.621,333.338 208.77,268.333 161.541,222.295 226.811,212.811 "/>
<polygon style="fill:#FEEA3B;" points="350.459,222.295 285.189,212.811 256,153.667 255.576,154.526 255.576,302.87 256,302.647 
	314.379,333.338 303.229,268.333 "/>
<g>
</g>
<g>
</g>
<g>
</g>
<g>
</g>
<g>
</g>
<g>
</g>
<g>
</g>
<g>
</g>
<g>
</g>
<g>
</g>
<g>
</g>
<g>
</g>
<g>
</g>
<g>
</g>
<g>
</g>
</svg>
