<?xml version="1.0" encoding="iso-8859-1"?>
<!-- Generator: Adobe Illustrator 19.0.0, SVG Export Plug-In . SVG Version: 6.00 Build 0)  -->
<svg version="1.1" id="Capa_1" xmlns="http://www.w3.org/2000/svg" xmlns:xlink="http://www.w3.org/1999/xlink" x="0px" y="0px"
	 viewBox="0 0 512 512" style="enable-background:new 0 0 512 512;" xml:space="preserve">
<circle style="fill:#7AE5FE;" cx="256" cy="256" r="256"/>
<path style="fill:#00BED2;" d="M510.293,226.46l-84.627-84.627l-9.86,12.93l-60.079-60.079L86.333,242.5l88.61,88.61l-64.61,63.39
	l115.751,115.75c9.815,1.143,19.794,1.75,29.916,1.75c141.385,0,256-114.615,256-256C512,246.007,511.408,236.154,510.293,226.46z"
	/>
<path style="fill:#E15050;" d="M251.5,162.525H149v-47.377c0-22.312,22.014-37.955,43.084-30.616l64.416,27.993L251.5,162.525z"/>
<path style="fill:#A13939;" d="M260.5,162.525H363v-47.377c0-22.312-22.014-37.955-43.084-30.616L255.5,112.525L260.5,162.525z"/>
<path style="fill:#F9C41E;" d="M256,160.192L256,160.192c-13.255,0-24,5.293-24-7.962v-30.038c0-13.255,10.745-24,24-24l0,0
	c13.255,0,24,10.745,24,24v30.038C280,165.485,269.255,160.192,256,160.192z"/>
<path style="fill:#FE9A35;" d="M256,98.192c-0.216,0-0.429,0.011-0.643,0.016V160.2c0.214-0.003,0.427-0.008,0.643-0.008
	c13.255,0,24,5.293,24-7.962v-30.038C280,108.937,269.255,98.192,256,98.192z"/>
<rect x="110.33" y="188.5" style="fill:#E15050;" width="291.33" height="206"/>
<g>
	<rect x="255.36" y="188.5" style="fill:#A13939;" width="146.31" height="206"/>
	<rect x="86.33" y="141.83" style="fill:#A13939;" width="339.33" height="100.67"/>
</g>
<rect x="255.36" y="141.83" style="fill:#7A2121;" width="170.31" height="100.67"/>
<rect x="213.33" y="141.83" style="fill:#FFDE1F;" width="85.33" height="252.67"/>
<rect x="255.36" y="141.83" style="fill:#F9C41E;" width="43.31" height="252.67"/>
<g>
</g>
<g>
</g>
<g>
</g>
<g>
</g>
<g>
</g>
<g>
</g>
<g>
</g>
<g>
</g>
<g>
</g>
<g>
</g>
<g>
</g>
<g>
</g>
<g>
</g>
<g>
</g>
<g>
</g>
</svg>
