<?xml version="1.0" encoding="iso-8859-1"?>
<!-- Generator: Adobe Illustrator 19.0.0, SVG Export Plug-In . SVG Version: 6.00 Build 0)  -->
<svg version="1.1" id="Capa_1" xmlns="http://www.w3.org/2000/svg" xmlns:xlink="http://www.w3.org/1999/xlink" x="0px" y="0px"
	 viewBox="0 0 512 512" style="enable-background:new 0 0 512 512;" xml:space="preserve">
<circle style="fill:#77DD00;" cx="256" cy="256" r="256"/>
<path style="fill:#66BB00;" d="M511.621,269.897L403,161.276h-26.188l-41.4-41.388l-76.447,32.156l-32.716-32.711L109,230.182
	l17.227,17L189,311l-62.773,92.022l108.052,108.052C241.441,511.676,248.682,512,256,512
	C392.722,512,504.402,404.818,511.621,269.897z"/>
<path style="fill:#F40000;" d="M126.227,212.956v190.066h259.547V212.956H126.227z"/>
<path style="fill:#FDBF00;" d="M344.2,136.986c-2.756-13.436-12.575-23.773-25.84-26.873c-13.436-3.273-26.873,1.378-35.314,12.059
	l-27.218,33.764l-27.046-33.764c-8.441-10.68-22.049-15.332-35.314-12.059c-13.265,3.101-23.083,13.437-25.84,26.873
	c-2.067,10.164,0.689,20.672,7.235,28.769c6.546,8.096,16.365,12.747,26.873,12.747h108.356c10.508,0,20.155-4.652,26.873-12.747
	C343.511,157.658,346.267,147.15,344.2,136.986z"/>
<path style="fill:#FF9F00;" d="M310.092,178.502h-54.264v-22.567l27.218-33.764c8.441-10.68,21.878-15.332,35.314-12.059
	c13.265,3.101,23.084,13.437,25.84,26.873c2.067,10.164-0.689,20.672-7.235,28.769C330.246,173.851,320.6,178.502,310.092,178.502z"
	/>
<rect x="255.83" y="212.96" style="fill:#E10000;" width="129.95" height="190.07"/>
<path style="fill:#FF3636;" d="M109,161.276v68.906h294v-68.906H109z"/>
<rect x="255.83" y="161.28" style="fill:#F40000;" width="147.17" height="68.906"/>
<path style="fill:#FFD400;" d="M212.934,161.276v241.746h86.133V161.276H212.934z"/>
<rect x="255.83" y="161.28" style="fill:#FDBF00;" width="43.24" height="241.75"/>
<g>
</g>
<g>
</g>
<g>
</g>
<g>
</g>
<g>
</g>
<g>
</g>
<g>
</g>
<g>
</g>
<g>
</g>
<g>
</g>
<g>
</g>
<g>
</g>
<g>
</g>
<g>
</g>
<g>
</g>
</svg>
