<?xml version="1.0" encoding="iso-8859-1"?>
<!-- Generator: Adobe Illustrator 19.0.0, SVG Export Plug-In . SVG Version: 6.00 Build 0)  -->
<svg version="1.1" id="Capa_1" xmlns="http://www.w3.org/2000/svg" xmlns:xlink="http://www.w3.org/1999/xlink" x="0px" y="0px"
	 viewBox="0 0 512 512" style="enable-background:new 0 0 512 512;" xml:space="preserve">
<circle style="fill:#590F38;" cx="256" cy="256" r="256"/>
<path style="fill:#380A25;" d="M512,256c0-5.964-0.221-11.876-0.622-17.738l-80.131-80.131L418.9,174.586l-16.3-16.455l-8.26,7.966
	l-33.221-33.221l-31.749,26.796l-93.694-93.694l-16.522,19.237l-17.559-17.559l-15.737,36.895l86.903,86.903l-76.296,25.003
	l-56.268-57.388l-12.685,15.491l-16.43-16.43l-12.358,29.335l45.96,45.96l-37.35,12.24L220.959,359.29L138,413.667l97.517,97.517
	C242.275,511.719,249.104,512,256,512C397.385,512,512,397.385,512,256z"/>
<rect x="136.005" y="168.015" transform="matrix(-0.9525 0.3046 -0.3046 -0.9525 552.4005 284.5209)" style="fill:#FFECB3;" width="236.004" height="34.668"/>
<polygon style="fill:#FFD863;" points="361.118,132.876 255.952,166.511 255.952,202.908 371.678,165.895 "/>
<path style="fill:#FF6838;" d="M275.395,160.293l-53.338,17.059l-0.609-1.905c-4.711-14.729,3.41-30.488,18.139-35.199l0,0
	c14.729-4.711,30.488,3.41,35.199,18.139L275.395,160.293z"/>
<path style="fill:#AE4E32;" d="M274.786,158.388c-2.945-9.207-10.206-15.831-18.834-18.354v26.478l19.443-6.219L274.786,158.388z"/>
<path style="fill:#983262;" d="M377.295,167.333c0-7.911,6.413-14.325,14.325-14.325c7.911,0,14.325,6.413,14.325,14.325
	c0-7.911,6.413-14.325,14.325-14.325c7.911,0,14.325,6.413,14.325,14.325c0,17.745-28.65,31.36-28.65,31.36
	S377.295,183.206,377.295,167.333z"/>
<g>
	<path style="fill:#FF3F84;" d="M170.317,79.524c0-9.881,8.01-17.892,17.892-17.892c9.881,0,17.892,8.011,17.892,17.892
		c0-9.881,8.01-17.892,17.892-17.892s17.892,8.011,17.892,17.892c0,22.163-35.784,39.169-35.784,39.169
		S170.317,99.35,170.317,79.524z"/>
	<path style="fill:#FF3F84;" d="M86.454,167.681c0-7.824,6.342-14.166,14.166-14.166s14.166,6.342,14.166,14.166
		c0-7.824,6.342-14.166,14.166-14.166s14.166,6.342,14.166,14.166c0,17.548-28.332,31.012-28.332,31.012
		S86.454,183.378,86.454,167.681z"/>
</g>
<rect x="107.33" y="213.67" style="fill:#FFECB3;" width="54" height="32"/>
<rect x="350.67" y="213.67" style="fill:#FFD863;" width="54" height="32"/>
<rect x="138" y="213.67" style="fill:#FF6838;" width="236" height="200"/>
<rect x="255.95" y="213.67" style="fill:#AE4E32;" width="118.05" height="200"/>
<g>
</g>
<g>
</g>
<g>
</g>
<g>
</g>
<g>
</g>
<g>
</g>
<g>
</g>
<g>
</g>
<g>
</g>
<g>
</g>
<g>
</g>
<g>
</g>
<g>
</g>
<g>
</g>
<g>
</g>
</svg>
