<?xml version="1.0" encoding="iso-8859-1"?>
<!-- Generator: Adobe Illustrator 19.0.0, SVG Export Plug-In . SVG Version: 6.00 Build 0)  -->
<svg version="1.1" id="Layer_1" xmlns="http://www.w3.org/2000/svg" xmlns:xlink="http://www.w3.org/1999/xlink" x="0px" y="0px"
	 viewBox="0 0 512 512" style="enable-background:new 0 0 512 512;" xml:space="preserve">
<circle style="fill:#B5F1F4;" cx="256" cy="256" r="256"/>
<path style="fill:#84DBFF;" d="M342.575,496.964c34.473-12.359,66.831-32.33,94.444-59.944
	c45.453-45.452,70.234-103.745,74.357-163.202L396.871,159.313L290.276,212.92l-57.382-57.382l-39.862,42.184l0,0l-57.311,92.391
	L342.575,496.964z"/>
<path style="fill:#C75163;" d="M95.496,211.865c0-44.318,35.93-80.246,80.251-80.246S256,167.546,256,211.865
	c0-44.318,35.93-80.246,80.251-80.246s80.251,35.928,80.251,80.246c0,76.735-160.504,168.517-160.504,168.517
	S95.496,292.921,95.496,211.865z"/>
<path style="fill:#AF3A51;" d="M416.504,211.865c0-44.318-35.93-80.246-80.251-80.246c-41.115,0-74.988,30.923-79.677,70.775
	v177.655C266.88,374.069,416.504,285.956,416.504,211.865z"/>
<path style="fill:#C1321F;" d="M401.634,256H199.111V135.084c-7.394-2.246-15.236-3.465-23.362-3.465
	c-1.708,0-3.4,0.072-5.082,0.178V256h-61.25c5.749,9.692,12.981,19.227,21.147,28.444h40.103v37.96
	c9.569,7.844,19.228,15.136,28.444,21.719v-59.68h180.62C388.139,275.168,395.64,265.623,401.634,256z"/>
<path style="fill:#A82116;" d="M401.634,256h-145.06v28.444H379.73C388.139,275.168,395.64,265.623,401.634,256z"/>
<g>
	<polygon style="fill:#FF99C0;" points="185.32,256 128.431,199.111 99.987,227.556 156.875,256 	"/>
	<polygon style="fill:#FF99C0;" points="185.322,256 242.21,199.111 270.655,227.556 213.766,256 	"/>
</g>
<g>
</g>
<g>
</g>
<g>
</g>
<g>
</g>
<g>
</g>
<g>
</g>
<g>
</g>
<g>
</g>
<g>
</g>
<g>
</g>
<g>
</g>
<g>
</g>
<g>
</g>
<g>
</g>
<g>
</g>
</svg>
