<?xml version="1.0" encoding="iso-8859-1"?>
<!-- Generator: Adobe Illustrator 19.0.0, SVG Export Plug-In . SVG Version: 6.00 Build 0)  -->
<svg version="1.1" id="Capa_1" xmlns="http://www.w3.org/2000/svg" xmlns:xlink="http://www.w3.org/1999/xlink" x="0px" y="0px"
	 viewBox="0 0 512 512" style="enable-background:new 0 0 512 512;" xml:space="preserve">
<circle style="fill:#F1333F;" cx="256" cy="256" r="256"/>
<path style="fill:#AE283F;" d="M512,256c0-7.685-0.359-15.284-1.022-22.796l-87.312-87.312l-6.144,8.584l-27.342-27.342
	l-20.972,58.715l-47.467-47.467l-95.958,61.849l79.54,79.541l-26.708,9.525l-58.929-58.929L76.552,295.847l48.293,48.293
	l-40.351,14.392l152.784,152.784C243.462,511.762,249.703,512,256,512C397.385,512,512,397.385,512,256z"/>
<rect x="238.12" y="187.78" style="fill:#35CCFF;" width="173.2" height="170.75"/>
<rect x="324.5" y="187.78" style="fill:#00BAFF;" width="86.83" height="170.75"/>
<path style="fill:#FFFFFF;" d="M324.726,148.439h-69.281v-10.658c0-10.934,10.328-18.922,20.911-16.173l34.565,8.98
	C319.05,132.701,324.726,140.039,324.726,148.439L324.726,148.439z"/>
<path style="fill:#E0E0E0;" d="M324.726,148.439h69.281v-10.658c0-10.934-10.328-18.922-20.911-16.173l-34.565,8.98
	C330.401,132.701,324.726,140.039,324.726,148.439L324.726,148.439z"/>
<rect x="225.78" y="145.89" style="fill:#00BAFF;" width="197.88" height="54.34"/>
<rect x="324.5" y="145.89" style="fill:#008CC3;" width="99.17" height="54.34"/>
<rect x="306.05" y="145.89" style="fill:#B9EAFF;" width="37.36" height="178.07"/>
<rect x="324.5" y="145.89" style="fill:#35CCFF;" width="18.904" height="178.07"/>
<rect x="84.5" y="283.39" style="fill:#60C344;" width="282.58" height="75.14"/>
<rect x="225.5" y="283.39" style="fill:#47AB4B;" width="141.57" height="75.14"/>
<path style="fill:#FFC000;" d="M225.784,244.056h-69.281v-10.658c0-10.934,10.328-18.922,20.911-16.173l34.565,8.98
	C220.109,228.317,225.784,235.656,225.784,244.056L225.784,244.056z"/>
<path style="fill:#D39E09;" d="M225.784,244.056h69.281v-10.658c0-10.934-10.328-18.922-20.911-16.173l-34.565,8.98
	C231.46,228.317,225.784,235.656,225.784,244.056L225.784,244.056z"/>
<rect x="76.55" y="241.51" style="fill:#2B9153;" width="298.46" height="54.34"/>
<rect x="225.5" y="241.51" style="fill:#005D5E;" width="149.52" height="54.34"/>
<rect x="207.11" y="241.51" style="fill:#FFDC00;" width="37.36" height="117.02"/>
<rect x="225.5" y="241.51" style="fill:#FFC000;" width="18.963" height="117.02"/>
<g>
</g>
<g>
</g>
<g>
</g>
<g>
</g>
<g>
</g>
<g>
</g>
<g>
</g>
<g>
</g>
<g>
</g>
<g>
</g>
<g>
</g>
<g>
</g>
<g>
</g>
<g>
</g>
<g>
</g>
</svg>
