<svg height="512pt" viewBox="0 0 512 512" width="512pt" xmlns="http://www.w3.org/2000/svg"><path d="m512 256c0 141.386719-114.613281 256-256 256s-256-114.613281-256-256 114.613281-256 256-256 256 114.613281 256 256zm0 0" fill="#ff9f00"/><path d="m390.054688 133.785156-79.625-79.625-51.179688-13.410156-52.75 20-18.058594 58.089844 97.5 97.503906-199.742187 199.742188 79.527343 79.523437c28.074219 10.582031 58.496094 16.390625 90.273438 16.390625 141.386719 0 256-114.613281 256-256 0-7.964844-.382812-15.835938-1.09375-23.613281l-109.726562-109.726563zm0 0" fill="#ff7816"/><path d="m401.480469 122.660156h-290.960938l-24.320312 293.511719h339.601562zm0 0" fill="#00c0f1"/><path d="m425.800781 416.167969h-169.800781v-293.507813h145.480469zm0 0" fill="#00abe9"/><path d="m267.261719 307.097656v23.421875l28.824219 19.140625-12.613282 18.917969-27.472656-18.46875-27.472656 18.46875-12.613282-18.917969 28.824219-19.140625v-23.421875l-52.695312 17.566406-7.203125-21.167968 59.898437-20.042969v-48.191406h22.523438v48.191406l59.898437 20.042969-7.203125 21.167968zm0 0" fill="#005285"/><path d="m267.261719 307.097656v23.421875l28.824219 19.140625-12.613282 18.917969-27.472656-18.46875v-114.847656h11.261719v48.191406l59.898437 20.042969-7.203125 21.167968zm0 0" fill="#003e67"/><path d="m334.820312 111.402344v78.816406h-22.519531v-78.816406c0-31.078125-25.222656-57.050782-56.300781-57.050782s-56.300781 25.972657-56.300781 57.050782v78.816406h-22.519531v-78.816406c0-43.464844 35.355468-79.570313 78.820312-79.570313 43.460938 0 78.820312 36.105469 78.820312 79.570313zm0 0" fill="#c6e2e7"/><path d="m334.820312 111.402344v78.816406h-22.519531v-78.816406c0-31.078125-25.222656-57.050782-56.300781-57.050782v-22.519531c43.464844 0 78.820312 36.105469 78.820312 79.570313zm0 0" fill="#a8d3d8"/><path d="m323.558594 235.261719c-18.625 0-33.777344-15.15625-33.777344-33.78125 0-18.628907 15.152344-33.78125 33.777344-33.78125 18.628906 0 33.78125 15.152343 33.78125 33.78125 0 18.625-15.152344 33.78125-33.78125 33.78125zm0 0" fill="#a8d3d8"/><path d="m323.558594 212.738281c-6.207032 0-11.257813-5.050781-11.257813-11.257812 0-6.210938 5.050781-11.261719 11.257813-11.261719 6.210937 0 11.261718 5.050781 11.261718 11.261719 0 6.207031-5.050781 11.257812-11.261718 11.257812zm0 0" fill="#003e67"/><path d="m188.441406 235.261719c-18.628906 0-33.78125-15.15625-33.78125-33.78125 0-18.628907 15.152344-33.78125 33.78125-33.78125 18.625 0 33.777344 15.152343 33.777344 33.78125 0 18.625-15.152344 33.78125-33.777344 33.78125zm0 0" fill="#c6e2e7"/><path d="m188.441406 212.738281c-6.210937 0-11.261718-5.050781-11.261718-11.257812 0-6.210938 5.050781-11.261719 11.261718-11.261719 6.207032 0 11.257813 5.050781 11.257813 11.261719 0 6.207031-5.050781 11.257812-11.257813 11.257812zm0 0" fill="#005285"/></svg>