<?xml version="1.0" encoding="iso-8859-1"?>
<!-- Generator: Adobe Illustrator 19.0.0, SVG Export Plug-In . SVG Version: 6.00 Build 0)  -->
<svg version="1.1" id="Capa_1" xmlns="http://www.w3.org/2000/svg" xmlns:xlink="http://www.w3.org/1999/xlink" x="0px" y="0px"
	 viewBox="0 0 512.007 512.007" style="enable-background:new 0 0 512.007 512.007;" xml:space="preserve">
<circle style="fill:#97C94D;" cx="256.003" cy="256.003" r="256.003"/>
<path style="fill:#6E9E39;" d="M244.434,74.182c-6.855-6.856-16.318-11.102-26.756-11.102c-20.873,0-37.855,16.982-37.854,37.854
	c0,15.185,18.686,47.962,27.121,61.983l-23.026,49.945l7.919,7.919l-24.069,52.207l-6.625,14.37
	c-8.644,18.749-7.019,40.23,3.466,57.216l8.763,14.197l37.882,61.369c2.542,4.116,5.511,7.83,8.816,11.12l-0.004,0.004
	l77.382,77.382c100.209-16.315,180.879-90.795,206.224-187.669L293.664,110.967l0,0l-12.102,0.343L244.434,74.182z"/>
<path style="fill:#7D684A;" d="M217.678,180.25l-7.558-12.136c-5.059-8.124-30.296-49.538-30.296-67.18
	c0-20.872,16.982-37.854,37.854-37.854s37.854,16.981,37.854,37.854c0,17.641-25.238,59.056-30.296,67.18L217.678,180.25z
	 M217.678,80.889c-11.053,0-20.045,8.992-20.045,20.045c0,7.347,10.133,27.761,20.044,45.078
	c9.911-17.323,20.046-37.74,20.046-45.078C237.723,89.881,228.731,80.889,217.678,80.889z"/>
<path style="fill:#67573E;" d="M217.678,63.081v17.809c11.053,0,20.045,8.992,20.045,20.045c0,7.338-10.135,27.754-20.045,45.077
	v34.239l7.558-12.136c5.059-8.124,30.296-49.538,30.296-67.18C255.532,80.061,238.55,63.081,217.678,63.081z"/>
<rect x="216.237" y="112.059" transform="matrix(-0.9996 0.0284 -0.0284 -0.9996 515.2341 295.3652)" style="fill:#EA971E;" width="78.565" height="78.565"/>
<rect x="256.008" y="111.497" transform="matrix(-0.9996 0.0284 -0.0284 -0.9996 554.9721 293.676)" style="fill:#C27526;" width="38.785" height="78.565"/>
<rect x="262.508" y="152.444" transform="matrix(-0.8229 -0.5682 0.5682 -0.8229 441.1944 520.973)" style="fill:#6AAF50;" width="78.565" height="78.565"/>
<rect x="298.767" y="163.747" transform="matrix(-0.8229 -0.5682 0.5682 -0.8229 464.6094 550.8784)" style="fill:#528443;" width="38.785" height="78.565"/>
<path style="fill:#EA4634;" d="M314.408,356.462l-29.561-47.888l40.896-88.705l-110.087-50.755l-54.514,118.242
	c-8.505,18.448-7.204,39.929,3.466,57.216l46.646,75.566c6.499,10.527,15.694,18.371,26.147,23.189
	c17.83,8.219,39.311,7.636,57.269-3.449C323.154,422.294,331.991,384.947,314.408,356.462z"/>
<path style="fill:#AD331A;" d="M271.06,194.658l-40.881,88.672c-4.379,9.5-24.598,55.307-43.183,97.51l24.258,39.297
	c6.499,10.527,15.694,18.371,26.147,23.189c17.782,8.198,39.197,7.637,57.126-3.364l0,0c0.047-0.03,0.096-0.056,0.143-0.085
	c9.792-6.044,17.262-14.424,22.135-23.977c9.304-18.236,9.143-40.745-2.396-59.439l-29.561-47.888l40.896-88.705L271.06,194.658z"/>
<path style="fill:#A2482A;" d="M197.215,335.843c10.5-22.774,0.549-49.747-22.224-60.246c-2.37-1.092-4.787-1.951-7.225-2.61
	l-6.625,14.37c-8.505,18.448-7.204,39.929,3.466,57.216l8.764,14.197C183.553,354.55,192.238,346.641,197.215,335.843z"/>
<path style="fill:#8A371C;" d="M233.508,412.76c-3.714,8.056-5.646,16.475-5.98,24.819c3.121,2.234,6.426,4.157,9.872,5.747
	c17.83,8.219,39.311,7.636,57.269-3.449c20.492-12.649,30.814-35.525,28.449-57.972c-0.842-0.433-1.689-0.858-2.556-1.258
	C287.654,365.477,248.679,379.854,233.508,412.76z"/>
<rect x="193.581" y="168.8" transform="matrix(-0.9081 -0.4187 0.4187 -0.9081 418.775 507.0211)" style="fill:#AD331A;" width="142.871" height="77.528"/>
<rect x="261.481" y="183.769" transform="matrix(-0.9081 -0.4187 0.4187 -0.9081 474.1309 549.1068)" style="fill:#8A371C;" width="71.662" height="77.528"/>
<g>
</g>
<g>
</g>
<g>
</g>
<g>
</g>
<g>
</g>
<g>
</g>
<g>
</g>
<g>
</g>
<g>
</g>
<g>
</g>
<g>
</g>
<g>
</g>
<g>
</g>
<g>
</g>
<g>
</g>
</svg>
