<svg height="512pt" viewBox="0 0 512 512" width="512pt" xmlns="http://www.w3.org/2000/svg"><path d="m512 256c0 141.386719-114.613281 256-256 256s-256-114.613281-256-256 114.613281-256 256-256 256 114.613281 256 256zm0 0" fill="#811c26"/><path d="m135.136719 377.109375 134.523437 134.527344c135.035156-7.101563 242.339844-118.835938 242.339844-255.636719 0-7.554688-.347656-15.023438-.988281-22.410156l-115.921875-115.921875zm0 0" fill="#442236"/><path d="m174.359375 117.667969 63.5 215.890625h46.867187l12.09375-107.945313-12.09375-107.945312zm0 0" fill="#d82f30"/><path d="m284.726562 117.667969v215.890625h49.890626l18.140624-42.332032 42.332032-18.140624v-155.417969zm0 0" fill="#bd1515"/><path d="m334.617188 273.085938v60.472656l60.472656-60.472656zm0 0" fill="#ffcc75"/><path d="m116.910156 178.140625v155.71875c0 33.398437 27.074219 60.472656 60.476563 60.472656 33.398437 0 60.472656-27.074219 60.472656-60.472656s0-155.71875 0-155.71875zm0 0" fill="#f2484b"/><path d="m116.910156 178.140625c0 33.398437 27.074219 60.472656 60.476563 60.472656l12.09375-60.472656-12.09375-60.476563c-33.402344.003907-60.476563 27.078126-60.476563 60.476563zm0 0" fill="#f2ebd9"/><path d="m177.382812 117.667969v120.945312c33.398438 0 60.476563-27.074219 60.476563-60.472656s-27.078125-60.472656-60.476563-60.472656zm0 0" fill="#f9dca7"/><path d="m195.527344 178.140625c0 10.019531-8.125 18.140625-18.144532 18.140625-10.019531 0-18.140624-8.121094-18.140624-18.140625s8.121093-18.144531 18.140624-18.144531c10.019532 0 18.144532 8.125 18.144532 18.144531zm0 0" fill="#ff8430"/></svg>