<?xml version="1.0" encoding="iso-8859-1"?>
<!-- Generator: Adobe Illustrator 19.0.0, SVG Export Plug-In . SVG Version: 6.00 Build 0)  -->
<svg version="1.1" id="Layer_1" xmlns="http://www.w3.org/2000/svg" xmlns:xlink="http://www.w3.org/1999/xlink" x="0px" y="0px"
	 viewBox="0 0 512 512" style="enable-background:new 0 0 512 512;" xml:space="preserve">
<path style="fill:#6FAEE8;" d="M510.221,225.828C495.288,98.665,387.174,0,256,0C114.615,0,0,114.615,0,256
	c0,123.183,87.009,226.032,202.919,250.475L510.221,225.828z"/>
<path style="fill:#458FDE;" d="M512,256c0-10.21-0.617-20.274-1.779-30.172l-153.6-153.6l-227.42,100.819l126.796,126.856
	l-96.464,163.186l43.385,43.385C220.045,510.087,237.798,512,256,512C397.384,512,512,397.384,512,256z"/>
<g>
	<rect x="244.87" y="161.948" style="fill:#6FAEE8;" width="22.261" height="137.951"/>
	<polygon style="fill:#6FAEE8;" points="389.559,150.595 255.997,284.163 255.997,315.646 398.557,173.078 	"/>
</g>
<polygon style="fill:#9ACEF3;" points="122.435,150.595 113.435,173.077 255.997,315.646 255.997,284.163 "/>
<path style="fill:#DDEFFB;" d="M256,30.063l71.279,143.015h71.279C398.559,94.531,334.436,30.553,256,30.063z"/>
<g>
	<path style="fill:#FFFFFF;" d="M256,30.063c-0.312-0.011-22.261,74.563-22.261,74.563L256,173.078h71.279
		C327.279,94.831,295.012,31.054,256,30.063z"/>
	<path style="fill:#FFFFFF;" d="M113.43,173.078h71.29L256,30.063C177.564,30.553,113.43,94.531,113.43,173.078z"/>
</g>
<path style="fill:#DDEFFB;" d="M184.721,173.078H256V30.063C216.988,31.054,184.721,94.831,184.721,173.078z"/>
<g>
	<path style="fill:#F15D4A;" d="M256,30.053v0.01C256.156,30.058,256.078,30.054,256,30.053z"/>
	<path style="fill:#F15D4A;" d="M256,30.053v-0.001C255.844,30.052,255.922,30.052,256,30.053z"/>
</g>
<polygon style="fill:#FBE287;" points="226.316,329.524 255.997,463.09 352.461,463.09 352.461,329.524 "/>
<rect x="159.533" y="329.528" style="fill:#F7EDBC;" width="96.467" height="133.565"/>
<polygon style="fill:#FFD652;" points="241.156,285.003 255.997,344.365 372.866,344.365 372.866,299.843 323.508,299.843 "/>
<polygon style="fill:#FBE287;" points="255.997,285.003 188.486,299.843 139.127,299.843 139.127,344.365 255.997,344.365 "/>
<polygon style="fill:#D33734;" points="226.631,260.43 256.345,392.597 289.736,425.988 289.736,260.43 "/>
<polygon style="fill:#E24642;" points="256.312,260.43 222.954,260.43 222.954,425.988 256.345,392.597 "/>
<path style="fill:#D33734;" d="M265.177,209.327c-6.57,6.57-9.757,15.252-9.584,23.92l-12.648,33.329l13.052,33.329l42.982-24.056
	l23.109-42.037c0.11-8.716-3.179-17.504-9.874-24.199C299.147,196.545,278.087,196.417,265.177,209.327z"/>
<g>
	<path style="fill:#E24642;" d="M346.286,243.684c13.067,13.067,13.195,34.127,0.285,47.037c-6.57,6.57-15.252,9.292-23.917,9.124
		h-66.658l66.091-66.034C330.804,233.7,339.595,236.993,346.286,243.684z"/>
	<path style="fill:#E24642;" d="M246.816,209.327c6.57,6.57,9.757,15.252,9.584,23.92l-0.404,66.658l-42.982-24.056l-23.109-42.037
		c-0.11-8.716,3.179-17.504,9.874-24.199C212.847,196.545,233.907,196.417,246.816,209.327z"/>
</g>
<path style="fill:#F15D4A;" d="M165.708,243.684c-13.067,13.067-13.195,34.127-0.285,47.037c6.57,6.57,15.252,9.292,23.917,9.124
	h66.658l-66.091-66.034C181.189,233.7,172.399,236.993,165.708,243.684z"/>
<g>
</g>
<g>
</g>
<g>
</g>
<g>
</g>
<g>
</g>
<g>
</g>
<g>
</g>
<g>
</g>
<g>
</g>
<g>
</g>
<g>
</g>
<g>
</g>
<g>
</g>
<g>
</g>
<g>
</g>
</svg>
