<?xml version="1.0" encoding="iso-8859-1"?>
<!-- Generator: Adobe Illustrator 19.0.0, SVG Export Plug-In . SVG Version: 6.00 Build 0)  -->
<svg version="1.1" id="Capa_1" xmlns="http://www.w3.org/2000/svg" xmlns:xlink="http://www.w3.org/1999/xlink" x="0px" y="0px"
	 viewBox="0 0 512 512" style="enable-background:new 0 0 512 512;" xml:space="preserve">
<circle style="fill:#E25F3F;" cx="256" cy="255.997" r="255.997"/>
<path style="fill:#A2482A;" d="M255.913,128.249l-91.31-32.093v51.905h-45.353v64.76l20.869,20.869c0,8.782,0,181.048,0,181.048
	l96.539,96.539c6.387,0.478,12.837,0.724,19.346,0.724c139.803,0,253.415-112.068,255.94-251.268L347.366,96.155l-91.311,32.093
	L255.913,128.249z"/>
<rect x="140.116" y="212.82" style="fill:#FFDD50;" width="232.758" height="201.919"/>
<rect x="256.079" y="212.82" style="fill:#FFB33B;" width="116.805" height="201.919"/>
<rect x="119.247" y="148.06" style="fill:#EA971E;" width="274.498" height="64.76"/>
<rect x="256.079" y="148.06" style="fill:#DF871E;" width="137.675" height="64.76"/>
<rect x="140.116" y="272.209" style="fill:#38979E;" width="232.758" height="49.23"/>
<rect x="256.079" y="272.209" style="fill:#30767A;" width="116.805" height="49.23"/>
<rect x="231.88" y="148.06" style="fill:#4AB6BF;" width="49.23" height="266.679"/>
<rect x="256.079" y="148.06" style="fill:#38979E;" width="25.042" height="266.679"/>
<polygon style="fill:#30767A;" points="347.366,96.156 256.057,128.249 256.057,148.06 347.366,148.06 "/>
<polygon style="fill:#38979E;" points="164.603,96.156 255.913,128.249 255.913,148.06 164.603,148.06 "/>
<g>
</g>
<g>
</g>
<g>
</g>
<g>
</g>
<g>
</g>
<g>
</g>
<g>
</g>
<g>
</g>
<g>
</g>
<g>
</g>
<g>
</g>
<g>
</g>
<g>
</g>
<g>
</g>
<g>
</g>
</svg>
